<mxfile host="app.diagrams.net" modified="2023-03-25T08:52:28.334Z" agent="Mozilla/5.0 (Windows NT 10.0; Win64; x64) AppleWebKit/537.36 (KHTML, like Gecko) Chrome/111.0.0.0 Safari/537.36" etag="Ssp1e7jTBuJIkCDhj04X" version="21.1.1" type="device">
  <diagram name="Страница 1" id="WXsonRmcCE_U6_1xOzmO">
    <mxGraphModel dx="875" dy="451" grid="1" gridSize="10" guides="1" tooltips="1" connect="1" arrows="1" fold="1" page="1" pageScale="1" pageWidth="827" pageHeight="1169" math="0" shadow="0">
      <root>
        <mxCell id="0" />
        <mxCell id="1" parent="0" />
        <mxCell id="oHIoEjeaocd0SmxYD0uX-15" value="" style="rounded=0;whiteSpace=wrap;html=1;" vertex="1" parent="1">
          <mxGeometry x="80" y="520" width="360" height="260" as="geometry" />
        </mxCell>
        <mxCell id="VUYWSvdoOwhASW0aB_cJ-13" value="" style="shape=image;verticalLabelPosition=bottom;labelBackgroundColor=default;verticalAlign=top;aspect=fixed;imageAspect=0;image=data:image/jpeg,/9j/4AAQSkZJRgABAQEBLAEsAAD/2wBDAAMCAgMCAgMDAwMEAwMEBQgFBQQEBQoHBwYIDAoMDAsKCwsNDhIQDQ4RDgsLEBYQERMUFRUVDA8XGBYUGBIUFRT/2wBDAQMEBAUEBQkFBQkUDQsNFBQUFBQUFBQUFBQUFBQUFBQUFBQUFBQUFBQUFBQUFBQUFBQUFBQUFBQUFBQUFBQUFBT/wAARCANPA+gDAREAAhEBAxEB/8QAHQABAAICAwEBAAAAAAAAAAAAAAcJAQgCBQYEA//EAFwQAQAAAwQDCA4HAwkFBgUFAAABAgMEBQYHERKVCBgZUVdh0tMJFyExMjhBU1Z1kZO00RMUIjdxdLMVgZJCUlVicqGiscEWIyRDgjM2g4WywiUmRGOjRUZlc8P/xAAWAQEBAQAAAAAAAAAAAAAAAAAAAQL/xAAXEQEBAQEAAAAAAAAAAAAAAAAAEQEx/9oADAMBAAIRAxEAPwC1MAHjM0M4MJZN4fmvjFt80LqssdMKVObTPWtE0IeBSpw0zTzfhDueXQDRHNrsmuIr3rVrHl7clC4bFCMYS3ne0kLRap4fzoUoR+jk/COusGsGL8+cxsfTzzX/AI3vy8JJ4xjGjG2TUqMPwp09WWHsUeFqVJ6s8Z6k81SeMdMZpoxjGP74qMAAA9JgzFVPD1a1WW22aW23Rb4SyWuzx78YQ06s0sfJNLpjo/FBzxjg/wDYP0NvsFb69cdr+1ZrXL5P6k/FNDiB5hQAAAAAAAAAAAAAAAAAAAAAAAAAAAAAAAAAAAAAAAAAAAAAAAAAAAAAAAAAAAAAAAAAAAAAAAAAAAAAAAAAAAAAAAAAAAAAAAAAAAAAB7DCWErNNYZr/v8Amms1x0ZtEkkO5Pa5/wCZJzccfIg+DF+NLZi20UIVJZLNYbLrQsllpQ0S0JI6sNEP4YA/XDGaGMsFVpatwYrvq555e99Tt9WSX98unVj++ANicr+yO5kYPr0aGKKVkxrdsNEJo15JbLbIQ5qskNWMf7UkfxIN7sjd1JgPPyy6lwXjGzX1JJr17kt8IU7XTh5Ywl0xhUl/rSRjDj0MiXYR0gyAAAAACDN1LupLm3OeGZPsU70xZb5Jv2bdMZ9EIwh3I1qsYd2WlLH980e5DyxgFTeYWY+I81cUWnEGKb0rXredbua9TuSUpNOmFOnJDuSSQ8ksP36Y91oebUAAAAAAemwfjD9g/TWC30fr9x2v7Npsk0f8cnFNDjQMYYO/YP0NvsFb6/cdr+1ZrXLD/BPxTQ4geZUAAAAAAAAAAAAAAAAAAAAAAAAAAAAAAAAAAAAAAAAAAAAAAAAAAAAAAAAAAAAAAAAAAAAAAAAAAAAAAAAAAAAAAAAAAAAAAAAAAAAewwnhKzTWGa/7/mms1x0ZtEskO5Utc/m5P9Y+RB1mLMW2nFdulqVJZbNY6MPo7NY6Xcp0ZPJCEP8AOPlB0SgAD6bsvS2XJeNmvC7rVXsNvstSFWharNUjTq0p4d6aWaHdhH8AWWbjTdsS5pz2bBWOK1Kz4vhLq2K8NEJKd6QhDTGWMO9LWhCEY6IdyeGmMNEdMGdwbiwjpggyAAADxub2Z11ZO5eXzi2+JtNku6jry0ZY6J69WMdWnSl/rTTRhDm06fIQUt5kZh31mtjW9MU4gtMbRed4VNeaEIx1KUkO5JSkh5JJIaIQh+/vxi0PNKAAAAAAAAPT4Oxj+wfprBb6P1647X9m02Sbyf15OKaHGgYxwd+wfobfYK31647X9qzWuXyf1J+KaHEDzCgAAAAAAAAAAAAAAAAAAAAAAAAAAAAAAAAAAAAAAAAAAAAAAAAAAAAAAAAAAAAAAAAAAAAAAAAAAAAAAAAAAAAAAAAAAAAAAAAAD2GEsJWaawzX/f001muShNolkh3J7XP/ADJP9Y+RB1mLcW2nFdulnnlls9joS/R2ayU+5ToyeSEIcfHEHRKAAAAP0stpr2G1UbTZq1Sz2mhPLVpVqM0ZZ6c8sdMs0sYd2EYRhCMI8cAW87jfdEQz9yylqXjUkhiu54y2S9ZJYQh9LHR/u7RCHkhUhCMY8U0s8O9oZ0T8gAAArg7Jrm3UvXGFx5eWOtGFjuulLedvklj3J7RUhGFKWP8AZp6Zv/FhxLg0jaAAHKlSqWitTo0pJqtWpNCSSnTljNNPNHvQhCHdjHmgglW5dyhnDf8AY5bVY8u77+gnhCMs1opSWeMYR8urVmlm/uKOw3mmdfJ3efvrP1pQ3mmdfJ3efvrP1pQ3mmdfJ3efvrP1pQ3mmdfJ3efvrP1pQ3mmdfJ3efvrP1pQ3mmdfJ3efvrP1pR6bB+5kzruH6awW/LW87fcdr+zabJNXs/8cn+97k0OMHwYm3EWbd3XlNC6sGXheNgnhr0qkKtCWeWEf5M8I1IaIw9hR1G80zr5O7z99Z+tKG80zr5O7z99Z+tKG80zr5O7z99Z+tKG80zr5O7z99Z+tKG80zr5O7z99Z+tKG80zr5O7z99Z+tKG80zr5O7z99Z+tKG80zr5O7z99Z+tKG80zr5O7z99Z+tKG80zr5O7z99Z+tKG80zr5O7z99Z+tKG80zr5O7z99Z+tKG80zr5O7z99Z+tKG80zr5O7z99Z+tKG80zr5O7z99Z+tKG80zr5O7z99Z+tKG80zr5O7z99Z+tKG80zr5O7z99Z+tKG80zr5O7z99Z+tKG80zr5O7z99Z+tKG80zr5O7z99Z+tKG80zr5O7z99Z+tKG80zr5O7z99Z+tKG80zr5O7z99Z+tKG80zr5O7z99Z+tKG80zr5O7z99Z+tKG80zr5O7z99Z+tKG80zr5O7z99Z+tKG80zr5O7z99Z+tKG80zr5O7z99Z+tKG80zr5O7z99Z+tKG80zr5O7z99Z+tKG80zr5O7z99Z+tKG80zr5O7z99Z+tKG80zr5O7z99Z+tKG80zr5O7z99Z+tKG80zr5O7z99Z+tKG80zr5O7z99Z+tKG80zr5O7z99Z+tKG80zr5O7z99Z+tKG80zr5O7z99Z+tKG80zr5O7z99Z+tKG80zr5O7z99Z+tKG80zr5O7z99Z+tKG80zr5O7z99Z+tKG80zr5O7z99Z+tKG80zr5O7z99Z+tKG80zr5O7z99Z+tKG80zr5O7z99Z+tKG80zr5O7z99Z+tKG80zr5O7z99Z+tKG80zr5O7z99Z+tKG80zr5O7z99Z+tKG80zr5O7z99Z+tKG80zr5O7z99Z+tKG80zr5O7z99Z+tKG80zr5O7z99Z+tKG80zr5O7z99Z+tKG80zr5O7z99Z+tKG80zr5O7z99Z+tKG80zr5O7z99Z+tKG80zr5O7z99Z+tKG80zr5O7z99Z+tKG80zr5O7z99Z+tKG80zr5O7z99Z+tKG80zr5O7z99Z+tKG80zr5O7z99Z+tKG80zr5O7z99Z+tKG80zr5O7z99Z+tKG80zr5O7z99Z+tKG80zr5O7z99Z+tKG80zr5O7z99Z+tKG80zr5O7z99Z+tKG80zr5O7z99Z+tKG80zr5O7z99Z+tKG80zr5O7z99Z+tKG80zr5O7z99Z+tKG80zr5O7z99Z+tKG80zr5O7z99Z+tKG80zr5O7z99Z+tKG80zr5O7z99Z+tKG80zr5O7z99Z+tKG80zr5O7z99Z+tKG80zr5O7z99Z+tKG80zr5O7z99Z+tKG80zr5O7z99Z+tKG80zr5O7z99Z+tKG80zr5O7z99Z+tKG80zr5O7z99Z+tKG80zr5O7z99Z+tKG80zr5O7z99Z+tKG80zr5O7z99Z+tKG80zr5O7z99Z+tKG80zr5O7z99Z+tKG80zr5O7z99Z+tKG80zr5O7z99Z+tKG80zr5O7z99Z+tKPQYR3E2aVW01LXfuCLyo2Kzw1/qtOrQjVtM3kkl0VNEIccY6CjhizcwZ64rt0tSplzeNmsdGH0dmsdKtZ4U6MnkhCH0vf44+UHRbzTOvk7vP31n60obzTOvk7vP31n60o/K1bj3OmyUJqtTLq95pJe/ClNRqTfullqRjH90CiK77uK88M3nVu2+Lutd1XhR/wC0stuoTUasn4yzQhH96j4QAAThuM82amUmfVw2itXjSue+J4XReEIx0S6lWaEKc8f7FTUjp4ozcaaLiZe8yOQAAKQc/cYTY+ztxvf008aklrvavCjGMdOilJN9HTh/BJK0PBKAOVOlPXqyU6Uk1SrPNCWSnJDTNNNGOiEIQ8sYx0QgC2fcj7kq58jsM2O+L3sVG3Y8tlGE9qtlSWE8bFrQ0/QUf5ur3ppod2aOnu6NEGd0bI6sOLSgasOKAGrDigBqw4oAasOKAGrDigBqw4oAasOKAGrDigBqw4oAasOKAGrDigBqw4oAasOKAGrDigBqw4oAasOKAGrDigBqw4oAasOKAGrDigBqw4oAasOKAGrDigBqw4oAasOKAGrDigBqw4oAasOKAGrDigBqw4oAasOKAGrDigBqw4oAasOKAGrDigBqw4oAasOKAGrDigBqw4oAasOKAGrDigBqw4oAasOKAGrDigBqw4oAasOKAGrDigBqw4oAasOKAGrDigBqw4oAasOKAGrDigBqw4oAasOKAGrDigBqw4oAasOKAGrDigBqw4oAasOKAGrDigBqw4oAasOKAGrDigBqw4oAasOKAGrDigBqw4oAasOKAGrDigBqw4oAasOKAGrDigBqw4oAasOKAGrDigBqw4oAasOKAGrDigBqw4oAasOKAGrDigBqw4oAasOKAGrDigBqw4oAasOKAGrDigBqw4oAasOKAGrDigBqw4oAasOKAGrDigBqw4oAasOKAGrDigBqw4oAasOKAGrDigBqw4oAasOKAGrDigBqw4oAasOKAGrDigBqw4oAasOKAMakOKAI5zwyFwrnzhStdGIrFJG0Syx+p3pSlh9ZsU/kmpzd/Rp78kfszQ7kYApxzJy+vXKrHl9YTvqSWW8brtEaM80kIwkqy6IRkqS6f5M8sZZofjzNDzSgBGaeX7VOaMlSXuyTQ78JvJH2gvMyhxb/ALd5XYSxFNNr1L0uqzWupH+vNTljN/i0sD14AAKBqtSatVnqTx1p55ozTRj5Yxjpi2OIAJV3KtyUMQ7o/LuxWmWWpQje9OtNJNDTCaNKWarCEYfjTgmi6STwYMjkAAAAAAAAAAAAAAAAAAAAAAAAAAAAAAAAAAAAAAAAAAAAAAAAAAAAAAAAAAAAAAAAAAAAAAAAAAAAAAAAAAAAAAAAAAAAAAAAAAAAAAAAAAAAAADEYaQVidk5uWzWDO7D9voyQkrW+45fp4wh4U1OtUlljHn1ZoQ/dBrBqAoAQ78PxQXGbimtNX3LeXk000Zowu+aTTHilrVJYf5MibwAAUCNgACZtxt40GXfrCf4eqmi5OTwYMjkAAAAAAAAAAAAAAAAAAAAAAAAAAAAAAAAAAAAAAAAAAAAAAAAAAAAAAAAAAAAAAAAAAAAAAAAAAAAAAAAAAAAAAAAAAAAAAAAAAAAAAAAAAAAAAACtPso/wB7ODfUlT4iZcGmDQAzDvwQXD7iLxWMvfyVT9eqyJzAABQI2AAJm3G3jQZd+sJ/h6qaLk5PBgyOQAAAAAAAAAAAAAAAAAAAAAAAAAAAAAAAAAAAAAAAAAAAAAAAAAAAAAAAAAAAAAAAAAAAAAAAAAAAAAAAAAAAAAAAAAAAAAAAAAAAAAAAAAAAAAAAK0+yj/ezg31JU+ImXBpg0AMw78EFw+4i8VjL38lU/XqsicwAAUCNgACZtxt40GXfrCf4eqmi5OTwYMjkAAAAAAAAAAAAAAAAAAAAAAAAAAAAAAAAAAAAAAAAAAAAAAAAAAAAAAAAAAAAAAAAAAAAAAAAAAAAAAAAAAAAAAAAAAAAAAAAAAAAAAAAAAAAAAACtPso/wB7ODfUlT4iZcGmDQAzDvwQXD7iLxWMvfyVT9eqyJzAABQI2AAJm3G3jQZd+sJ/h6qaLk5PBgyOQAAAAAAAAAAAAAAAAAAAAAAAAAAAAAAAAAAAAAAAAAAAAAAAAAAAAAAAAAAAAAAAAAAAAAAAAAAAAAAAAAAAAAAAAAAAAAAAAAAAAAAAAAAAAAAAK0+yj/ezg31JU+ImXBpg0AMw78EFw+4i8VjL38lU/XqsicwAAUCNgACZtxt40GXfrCf4eqmi5OTwYMjkAAAAAAAAAAAAAAAAAAAAAAAAAAAAAAAAAAAAAAAAAAAAAAAAAAAAAAAAAAAAAAAAAAAAAAAAAAAAAAAAAAAAAAAAAAAAAAAAAAAAAAAAAAAAAAACtPso/wB7ODfUlT4iZcGmDQAzDvwQXD7iLxWMvfyVT9eqyJzAABQI2AAJm3G3jQZd+sJ/h6qaLk5PBgyOQAAAAAAAAAAAAAAAAAAAAAAAAAAAAAAAAAAAAAAAAAAAAAAAAAAAAAAAAAAAAAAAAAAAAAAAAAAAAAAAAAAAAAAAAAAAAAAAAAAAAAAAAAAAAAAAK0+yj/ezg31JU+ImXBpg0AMw78EFw+4i8VjL38lU/XqsicwAAUCNgACZtxt40GXfrCf4eqmi5OTwYMjkAAAAAAAAAAAAAAAAAAAAAAAAAAAAAAAAAAAAAAAAAAAAAAAAAAAAAAAAAAAAAAAAAAAAAAAAAAAAAAAAAAAAAAAAAAAAAAAAAAAAAAAAAAAAAAACtPso/wB7ODfUlT4iZcGmDQAzDvwQXD7iLxWMvfyVT9eqyJzAABQI2AAJm3G3jQZd+sJ/h6qaLk5PBgyOQAAAAAAAAAAAAAAAAAAAAAAAAAAAAAAAAAAAAAAAAAAAAAAAAAAAAAAAAAAAAAAAAAAAAAAAAAAAAAAAAAAAAAAAAAAAAAAAAAAAAAAAAAAAAAAAK0+yj/ezg31JU+ImXBpg0AMw78EFw+4i8VjL38lU/XqsicwAAUCNgACZtxt40GXfrCf4eqmi5OTwYMjkAAAAAAAAAAAAAAAAAAAAAAAAAAAAAAAAAAAAAAAAAAAAAAAAAAAAAAAAAAAAAAAAAAAAAAAAAAAAAAAAAAAAAAAAAAAAAAAAAAAAAAAAAAAAAAACtPso/wB7ODfUlT4iZcGmDQAzDvwQXD7iLxWMvfyVT9eqyJzAABQI2AAJm3G3jQZd+sJ/h6qaLk5PBgyOQAAAAAAAAAAAAAAAAAAAAAAAAAAAAAAAAAAAAAAAAAAAAAAAAAAAAAAAAAAAAAAAAAAAAAAAAAAAAAAAAAAAAAAAAAAAAAAAAAAAAAAAAAAAAAAAK0+yj/ezg31JU+ImXBpg0AMw78EFw+4i8VjL38lU/XqsicwAAUCNgACZtxt40GXfrCf4eqmi5OTwYMjkAAAAAAAAAAAAAAAAAAAAAAAAAAAAAAAAAAAAAAAAAAAAAAAAAAAAAAAAAAAAAAAAAAAAAAAAAAAAAAAAAAAAAAAAAAAAAAAAAAAAAAAAAAAAAAACtPso/wB7ODfUlT4iZcGmDQAzDvwQXD7iLxWMvfyVT9eqyJzAABQI2AAJm3G3jQZd+sJ/h6qaLk5PBgyOQAAAAAAAAAAAAAAAAAAAAAAAAAAAAAAAAAAAAAAAAAAAAAAAAAAAAAAAAAAAAAAAAAAAAAAAAAAAAAAAAAAAAAAAAAAAAAAAAAAAAAAAAAAAAAAAK0+yj/ezg31JU+ImXBpg0AMw78EFw+4i8VjL38lU/XqsicwAAUCNgACZtxt40GXfrCf4eqmi5OTwYMjkAAAAAAAAAAAAAAAAAAAAAAAAAAAAAAAAAAAAAAAAAAAAAAAAAAAAAAAAAAAAAAAAAAAAAAAAAAAAAAAAAAAAAAAAAAAAAAAAAAAAAAAAAAAAAAACtPso/wB7ODfUlT4iZcGmDQAzDvwQXD7iLxWMvfyVT9eqyJzAABQI2AAJm3G3jQZd+sJ/h6qaLk5PBgyOQAAAAAAAAAAAAAAAAAAAAAAAAAAAAAAAAAAAAAAAAAAAAAAAAAAAAAAAAAAAAAAAAAAAAAAAAAAAAAAAAAAAAAAAAAAAAAAAAAAAAAAAAAAAAAAAK0+yj/ezg31JU+ImXBpg0AMw78EFw+4i8VjL38lU/XqsicwAAUCNgACZtxt40GXfrCf4eqmi5OTwYMjkAAAAAAAAAAAAAAAAAAAAAAAAAAAAAAAAAAAAAAAAAAAAAAAAAAAAAAAAAAAAAAAAAAAAAAAAAAAAAAAAAAAAAAAAAAAAAAAAAAAAAAAAAAAAAAACtPso/wB7ODfUlT4iZcGmDQAzDvwQXD7iLxWMvfyVT9eqyJzAABQI2AAJm3G3jQZd+sJ/h6qaLk5PBgyOQAAAAAAAAAAAAAAAAAAAAAAAAAAAAAAAAAAAAAAAAAAAAAAAAAAAAAAAAAAAAAAAAAAAAAAAAAAAAAAAAAAAAAAAAAAAAAAAAAAAAAAAAAAAAAAAK0+yj/ezg31JU+ImXBpg0AMw78EFw+4i8VjL38lU/XqsicwAAUCNgACZtxt40GXfrCf4eqmi5OTwYMjkAAAAAAAAAAAAAAAAAAAAAAAAAAAAAAAAAAAAAAAAAAAAAAAAAAAAAAAAAAAAAAAAAAAAAAAAAAAAAAAAAAAAAAAAAAAAAAAAAAAAAAAAAAAAAAACtPso/wB7ODfUlT4iZcGmDQAzDvwQXD7iLxWMvfyVT9eqyJzAABQI2AAJm3G3jQZd+sJ/h6qaLk5PBgyOQAAAAAAAAAAAAAAAAAAAAAAAAAAAAAAAAAAAAAAAAAAAAAAAAAAAAAAAAAAAAAAAAAAAAAAAAAAAAAAAAAAAAAAAAAAAAAAAAAAAAAAAAAAAAAAAK0+yj/ezg31JU+ImXBpg0AMw78EFw+4i8VjL38lU/XqsicwAAUCNgACZtxt40GXfrCf4eqmi5OTwYMjkAAAAAAAAAAAAAAAAAAAAAAAAAAAAAAAAAAAAAAAAAAAAAAAAAAAAAAAAAAAAAAAAAAAAAAAAAAAAAAAAAAAAAAAAAAAAAAAAAAAAAAAAAAAAAAACtPso/wB7ODfUlT4iZcGmDQAzDvwQXD7iLxWMvfyVT9eqyJzAABQI2AAJm3G3jQZd+sJ/h6qaLk5PBgyOQAAAAAAAAAAAAAAAAAAAAAAAAAAAAAAAAAAAAAAAAAAAAAAAAAAAAAAAAAAAAAAAAAAAAAAAAAAAAAAAAAAAAAAAAAAAAAAAAAAAAAAAAAAAAAAAK0+yj/ezg31JU+ImXBpg0AMw78EFw+4i8VjL38lU/XqsicwAAUCNgACZtxt40GXfrCf4eqmi5OTwYMjkAAAAAAAAAAAAAAAAAAAAAAAAAAAAAAAAAAAAAAAAAAAAAAAAAAAAAAAAAAAAAAAAAAAAAAAAAAAAAAAAAAAAAAAAAAAAAAAAAAAAAAAAAAAAAAACtPso/wB7ODfUlT4iZcGmDQAzDvwQXD7iLxWMvfyVT9eqyJzAABQI2AAJm3G3jQZd+sJ/h6qaLk5PBgyOQAAAAAAAAAAAAAAAAAAAAAAAAAAAAAAAAAAAAAAAAAAAAAAAAAAAAAAAAAAAAAAAAAAAAAAAAAAAAAAAAAAAAAAAAAAAAAAAAAAAAAAAAAAAAAAAK0+yj/ezg31JU+ImXBpg0AMw78EFw+4i8VjL38lU/XqsicwAAUCNgACZtxt40GXfrCf4eqmi5OTwYMjkAAAAAAAAAAAAAAAAAAAAAAAAAAAAAAAAAAAAAAAAAAAAAAAAAAAAAAAAAAAAAAAAAAAAAAAAAAAAAAAAAAAAAAAAAAAAAAAAAAAAAAAAAAAAAAACtPso/wB7ODfUlT4iZcGmDQAzDvwQXD7iLxWMvfyVT9eqyJzAABQI2AAJm3G3jQZd+sJ/h6qaLk5PBgyOQAAAAAAAAAAAAAAAAAAAAAAAAAAAAAAAAAAAAAAAAAAAAAAAAAAAAAAAAAAAAAAAAAAAAAAAAAAAAAAAAAAAAAAAAAAAAAAAAAAAAAAAAAAAAAAAK0+yj/ezg31JU+ImXBpg0AMw78EFw+4i8VjL38lU/XqsicwAAUCNgACZtxt40GXfrCf4eqmi5OTwYMjkAAAAAAAAAAAAAAAAAAAAAAAAAAAAAAAAAAAAAAAAAAAAAAAAAAAAAAAAAAAAAAAAAAAAAAAAAAAAAAAAAAAAAAAAAAAAAAAAAAAAAAAAAAAAAAACtPso/wB7ODfUlT4iZcGmDQAzDvwQXD7iLxWMvfyVT9eqyJzAABQI2AAJm3G3jQZd+sJ/h6qaLk5PBgyOQAAAAAAAAAAAAAAAAAAAAAAAAAAAAAAAAAAAAAAAAAAAAAAAAAAAAAAAAAAAAAAAAAAAAAAAAAAAAAAAAAAAAAAAAAAAAAAAAAAAAAAAAAAAAAAAK0+yj/ezg31JU+ImXBpg0AMw78EFw+4i8VjL38lU/XqsicwAAUCNgACZtxt40GXfrCf4eqmi5OTwYMjkAAAAAAAAAAAAAAAAAAAAAAAAAAAAAAAAAAAAAAAAAAAAAAAAAAAAAAAAAAAAAAAAAAAAAAAAAAAAAAAAAAAAAAAAAAAAAAAAAAAAAAAAAAAAAAACtPso/wB7ODfUlT4iZcGmDQAzDvwQXD7iLxWMvfyVT9eqyJzAABQI2AAJm3G3jQZd+sJ/h6qaLk5PBgyOQAAAAAAAAAAAAAAAAAAAAAAAAAAAAAAAAAAAAAAAAAAAAAAAAAAAAAAAAAAAAAAAAAAAAAAAAAAAAAAAAAAAAAAAAAAAAAAAAAAAAAAAAAAAAAAAK0+yj/ezg31JU+ImXBpg0AMw78EFw+4i8VjL38lU/XqsicwAAUCNgACZtxt40GXfrCf4eqmi5OTwYMjkAAAAAAAAAAAAAAAAAAAAAAAAAAAAAAAAAAAAAAAAAAAAAAAAAAAAAAAAAAAAAAAAAAAAAAAAAAAAAAAAAAAAAAAAAAAAAAAAAAAAAAAAAAAAAAACtPso/wB7ODfUlT4iZcGmDQAzDvwQXD7iLxWMvfyVT9eqyJzAABQI2AAJm3G3jQZd+sJ/h6qaLk5PBgyOQAAAAAAAAAAAAAAAAAAAAAAAAAAAAAAAAAAAAAAAAAAAAAAAAAAAAAAAAAAAAAAAAAAAAAAAAAAAAAAAAAAAAAAAAAAAAAAAAAAAAAAAAAAAAAAAK0+yj/ezg31JU+ImXBpg0AMw78EFw+4i8VjL38lU/XqsicwAAUCNgACZtxt40GXfrCf4eqmi5OTwYMjkAAAAAAAAAAAAAAAAAAAAAAAAAAAAAAAAAAAAAAAAAAAAAAAAAAAAAAAAAAAAAAAAAAAAAAAAAAAAAAAAAAAAAAAAAAAAAAAAAAAAAAAAAAAAAAACtPso/wB7ODfUlT4iZcGmDQAzDvwQXD7iLxWMvfyVT9eqyJzAABQI2AAJm3G3jQZd+sJ/h6qaLk5PBgyOQAAAAAAAAAAAAAAAAAAAAAAAAAAAAAAAAAAAAAAAAAAAAAAAAAAAAAAAAAAAAAAAAAAAAAAAAAAAAAAAAAAAAAAAAAAAAAAAAAAAAAAAAAAAAAAAK0+yj/ezg31JU+ImXBpg0AMw78EFw+4i8VjL38lU/XqsicwAAUCNgACZtxt40GXfrCf4eqmi5OTwYMjkAAAAAAAAAAAAAAAAAAAAAAAAAAAAAAAAAAAAAAAAAAAAAAAAAAAAAAAAAAAAAAAAAAAAAAAAAAAAAAAAAAAAAAAAAAAAAAAAAAAAAAAAAAAAAAACtPso/wB7ODfUlT4iZcGmDQAzDvwQXD7iLxWMvfyVT9eqyJzAABQI2AAJm3G3jQZd+sJ/h6qaLk5PBgyOQAAAAAAAAAAAAAAAAAAAAAAAAAAAAAAAAAAAAAAAAAAAAAAAAAAAAAAAAAAAAAAAAAAAAAAAAAAAAAAAAAAAAAAAAAAAAAAAAAAAAAAAAAAAAAAAK0+yj/ezg31JU+ImXBpg0AMw78EFw+4i8VjL38lU/XqsicwAAUCNgACZtxt40GXfrCf4eqmi5OTwYMjkAAAAAAAAAAAAAAAAAAAAAAAAAAAAAAAAAAAAAAAAAAAAAAAAAAAAAAAAAAAAAAAAAAAAAAAAAAAAAAAAAAAAAAAAAAAAAAAAAAAAAAAAAAAAAAACtPso/wB7ODfUlT4iZcGmDQAzDvwQXD7iLxWMvfyVT9eqyJzAABQI2AAJm3G3jQZd+sJ/h6qaLk5PBgyOQAAAAAAAAAAAAAAAAAAAAAAAAAAAAAAAAAAAAAAAAAAAAAAAAAAAAAAAAAAAAAAAAAAAAAAAAAAAAAAAAAAAAAAAAAAAAAAAAAAAAAAAAAAAAAAAK0+yj/ezg31JU+ImXBpg0AMw78EFw+4i8VjL38lU/XqsicwAAUCNgACZtxt40GXfrCf4eqmi5OTwYMjkAAAAAAAAAAAAAAAAAAAAAAAAAAAAAAAAAAAAAAAAAAAAAAAAAAAAAAAAAAAAAAAAAAAAAAAAAAAAAAAAAAAAAAAAAAAAAAAAAAAAAAAAAAAAAAACtPso/wB7ODfUlT4iZcGmDQAzDvwQXD7iLxWMvfyVT9eqyJzAABQI2AAJm3G3jQZd+sJ/h6qaLk5PBgyOQAAAAAAAAAAAAAAAAAAAAAAAAAAAAAAAAAAAAAAAAAAAAAAAAAAAAAAAAAAAAAAAAAAAAAAAAAAAAAAAAAAAAAAAAAAAAAAAAAAAAAAAAAAAAAAAK0+yj/ezg31JU+ImXBpg0AMw78EFw+4i8VjL38lU/XqsicwAAUCNgACZtxt40GXfrCf4eqmi5OTwYMjkAAAAAAAAAAAAAAAAAAAAAAAAAAAAAAAAAAAAAAAAAAAAAAAAAAAAAAAAAAAAAAAAAAAAAAAAAAAAAAAAAAAAAAAAAAAAAAAAAAAAAAAAAAAAAAACtPso/wB7ODfUlT4iZcGmDQAzDvwQXD7iLxWMvfyVT9eqyJzAABQI2AAJm3G3jQZd+sJ/h6qaLk5PBgyOQAAAAAAAAAAAAAAAAAAAAAAAAAAAAAAAAAAAAAAAAAAAAAAAAAAAAAAAAAAAAAAAAAAAAAAAAAAAAAAAAAAAAAAAAAAAAAAAAAAAAAAAAAAAAAAAK0+yj/ezg31JU+ImXBpg0AMw78EFw+4i8VjL38lU/XqsicwAAUCNgACZtxt40GXfrCf4eqmi5OTwYMjkAAAAAAAAAAAAAAAAAAAAAAAAAAAAAAAAAAAAAAAAAAAAAAAAAAAAAAAAAAAAAAAAAAAAAAAAAAAAAAAAAAAAAAAAAAAAAAAAAAAAAAAAAAAAAAACtPso/wB7ODfUlT4iZcGmDQAzDvwQXD7iLxWMvfyVT9eqyJzAABQI2AAJm3G3jQZd+sJ/h6qaLk5PBgyOQAAAAAAAAAAAAAAAAAAAAAAAAAAAAAAAAAAAAAAAAAAAAAAAAAAAAAAAAAAAAAAAAAAAAAAAAAAAAAAAAAAAAAAAAAAAAAAAAAAAAAAAAAAAAAAAK0+yj/ezg31JU+ImXBpg0AMw78EFw+4i8VjL38lU/XqsicwAAUCNgACZtxt40GXfrCf4eqmi5OTwYMjkAAAAAAAAAAAAAAAAAAAAAAAAAAAAAAAAAAAAAAAAAAAAAAAAAAAAAAAAAAAAAAAAAAAAAAAAAAAAAAAAAAAAAAAAAAAAAAAAAAAAAAAAAAAAAAACtPso/wB7ODfUlT4iZcGmDQAzDvwQXD7iLxWMvfyVT9eqyJzAABQI2AAJm3G3jQZd+sJ/h6qaLk5PBgyOQAAAAAAAAAAAAAAAAAAAAAAAAAAAAAAAAAAAAAAAAAAAAAAAAAAAAAAAAAAAAAAAAAAAAAAAAAAAAAAAAAAAAAAAAAAAAAAAAAAAAAAAAAAAAAAAK0+yj/ezg31JU+ImXBpg0AMw78EFw+4i8VjL38lU/XqsicwAAUCNgACZtxt40GXfrCf4eqmi5OTwYMjkAAAAAAAAAAAAAAAAAAAAAAAAAAAAAAAAAAAAAAAAAAAAAAAAAAAAAAAAAAAAAAAAAAAAAAAAAAAAAAAAAAAAAAAAAAAAAAAAAAAAAAAAAAAAAAACtHspE8subODdM0sP/gdTvx0f/UTLg0v+mp+ck/ig0H01Pzkn8UAZhWp6Yf7yT+KCaLitxDNCbcr5exhGEYfUqndh+YqsicwAAUCNgACZtxt40GXfrCf4eqmi5OTwYMjkAAAAAAAAAAAAAAAAAAAAAAAAAAAAAAAAAAAAAAAAAAAAAAAAAAAAAAAAAAAAAAAAAAAAAAAAAAAAAAAAAAAAAAAAAAAAAAAAAAAAAAAAAAAAAAADoMQYBwziy00rRfeHbpvmvSk+jp1bwsNKvNJLp06sIzyxjCGnu6AdX2l8v/QXDWx7P0AO0vl/6C4a2PZ+gB2l8v8A0Fw1sez9AHp7puew3Dd9GwXbYrPd1hoQ1aVmslKWlSpw06dEsssIQh3Yxj3OMH2AAAoEbAAEzbjbxoMu/WE/w9VNFycngwZHIAAAAAAAAAAAAAAAAAAAAAAAAAAAAAAAAAAAAAAAAAAAAAAAAAAAAAAAAAAAAAAAAAAAAAAAAAAAAAAAAAAAAAAAAAAAAAAAAAAAAAAAAAAAAAAAAAAAAAAAFAjYAAmbcbeNBl36wn+HqpouTk8GDI5AAAAAAAAAAAAAAAAAAAAAAAAAAAAAAAAAAAAAAAAAAAAAAAAAAAAAAAAAAAAAAAAAAAAAAAAAAAAAAAAAAAAAAAAAAAAAAAAAAAAAAAAAAAAAAAAAAAAAAAAoEbAAEzbjbxoMu/WE/wAPVTRcnJ4MGRyAAAAAAAAAAAAAAAAAAAAAAAAAAAAAAAAAAAAAAAAAAAAAAAAAAAAAAAAAAAAAAAAAAAAAAAAAAAAAAAAAAAAAAAAAAAAAAAAAAAAAAAAAAAAAAAAAAAAAAABQI2AAJm3G3jQZd+sJ/h6qaLk5PBgyOQAAAAAAAAAAAAAAAAAAAAAAAAAAAAAAAAAAAAAAAAAAAAAAAAAAAAAAAAAAAAAAAAAAAAAAAAAAAAAAAAAAAAAAAAAAAAAAAAAAAAAAAAAAAAAAAAAAAAAAAKBGwABM2428aDLv1hP8PVTRcnJ4MGRyAAAAAAAAAAAAAAAAAAAAAAAAAAAAAAAAAAAAAAAAAAAAAAAAAAAAAAAAAAAAAAAAAAAAAAAAAAAAAAAAAAAAAAAAAAAAAAAAAAAAAAAAAAAAAAAAAAAAAAABQI2AAJm3G3jQZd+sJ/h6qaLk5PBgyOQAAAAAAAAAAAAAAAAAAAAAAAAAAAAAAAAAAAAAAAAAAAAAAAAAAAAAAAAAAAAAAAAAAAAAAAAAAAAAAAAAAAAAAAAAAAAAAAAAAAAAAAAAAAAAAAAAAAAAAAKBGwABM2428aDLv1hP8PVTRcnJ4MGRyAAAAAAAAAAAAAAAAAAAAAAAAAAAAAAAAAAAAAAAAAAAAAAAAAAAAAAAAAAAAAAAAAAAAAAAAAAAAAAAAAAAAAAAAAAAAAAAAAAAAAAAAAAAAAAAAAAAAAAABQI2AAJm3G3jQZd+sJ/h6qaLk5PBgyOQAAAAAAAAAAAAAAAAAAAAAAAAAAAAAAAAAAAAAAAAAAAAAAAAAAAAAAAAAAAAAAAAAAAAAAAAAAAAAAAAAAAAAAAAAAAAAAAAAAAAAAAAAAAAAAAAAAAAAAAKBGwABM2428aDLv1hP8PVTRcnJ4MGRyAAAAAAAAAAAAAAAAAAAAAAAAAAAAAAAAAAAAAAAAAAAAAAAAAAAAAAAAAAAAAAAAAAAAAAAAAAAAAAAAAAAAAAAAAAAAAAAAAAAAAAAAAAAAAAAAAAAAAAABQI2AAJm3G3jQZd+sJ/h6qaLk5PBgyOQAAAAAAAAAAAAAAAAAAAAAAAAAAAAAAAAAAAAAAAAAAAAAAAAAAAAAAAAAAAAAAAAAAAAAAAAAAAAAAAAAAAAAAAAAAAAAAAAAAAAAAAAAAAAAAAAAAAAAAAKBGwABM2428aDLv1hP8AD1U0XJyeDBkcgAAAAAAAAAAAAAAAAAAAAAAAAAAAAAAAAAAAAAAAAAAAAAAAAAAAAAAAAAAAAAAAAAAAAAAAAAAAAAAAAAAAAAAAAAAAAAAAAAAAAAAAAAAAAAAAAAAAAAAAUCNgACZtxt40GXfrCf4eqmi5OTwYMjkAAAAAAAAAAAAAAAAAAAAAAAAAAAAAAAAAAAAAAAAAAAAAAAAAAAAAAAAAAAAAAAAAAAAAAAAAAAAAAAAAAAAAAAAAAAAAAAAAAAAAAAAAAAAAAAAAAAAAAACgRsAATNuNvGgy79YT/D1U0XJyeDBkcgAAAAAAAAAAAAAAAAAAAAAAAAAAAAAAAAAAAAAAAAAAAAAAAAAAAAAAAAAAAAAAAAAAAAAAAAAAAAAAAAAAAAAAAAAAAAAAAAAAAAAAAAAAAAAAAAAAAAAAAUCNgACZtxt40GXfrCf4eqmi5OTwYMjkAAADGkDSBpA0gaQNIGkDSBpA0gaQNIGkDSBpA0gaQNIGkDSBpA0gaQNIGkDSBpA0gaQNIGkDSBpA0gaQNIGkDSBpA0gaQNIGkDSBpA0gaQNIGkDSBpA0gaQNIGkDSBpA0gaQNIGkDSBpA0gaQNIGkDSBpA0gaQNIGkDSBpA0gaQNIGkDSBpA0gaQNIGkDSBpA0gaQNIGkDSBpA0gaQNIGkDSBpA0gaQNIGkGQAAAAAAAAAAAAUCNgACZtxt40GXfrCf4eqmi5OTwYMjkAAADQ/skGZ+MMvsT4GpYYxTe+HqVqsdrmryXZbJ6EKsZalKEsZoSxhpjCEY6PxiuDTvfJZs8peK9rVvmsDfJZs8peK9rVvmQN8lmzyl4r2tW+ZA3yWbPKXiva1b5kDfJZs8peK9rVvmQN8lmzyl4r2tW+ZA3yWbPKXiva1b5kDfJZs8peK9rVvmQN8lmzyl4r2tW+ZA3yWbPKXiva1b5kDfJZs8peK9rVvmQN8lmzyl4r2tW+ZA3yWbPKXiva1b5kDfJZs8peK9rVvmQN8lmzyl4r2tW+ZA3yWbPKXiva1b5kDfJZs8peK9rVvmQN8lmzyl4r2tW+ZA3yWbPKXiva1b5kDfJZs8peK9rVvmQN8lmzyl4r2tW+ZA3yWbPKXiva1b5kDfJZs8peK9rVvmQN8lmzyl4r2tW+ZA3yWbPKXiva1b5kDfJZs8peK9rVvmQN8lmzyl4r2tW+ZA3yWbPKXiva1b5kDfJZs8peK9rVvmQN8lmzyl4r2tW+ZA3yWbPKXiva1b5kDfJZs8peK9rVvmQN8lmzyl4r2tW+ZA3yWbPKXiva1b5kDfJZs8peK9rVvmQN8lmzyl4r2tW+ZA3yWbPKXiva1b5kDfJZs8peK9rVvmQeuwnnNmfNYZr+v7M3FtnuOjNolkhe1aFS1z+bk+17Y+QHRYg3VGat9XnVtNHH2IruoR7lOz2a8qssskvk8vdjzxIOu3yWbPKXiva1b5kDfJZs8peK9rVvmQN8lmzyl4r2tW+ZA3yWbPKXiva1b5kDfJZs8peK9rVvmQN8lmzyl4r2tW+ZA3yWbPKXiva1b5kDfJZs8peK9rVvmQN8lmzyl4r2tW+ZA3yWbPKXiva1b5kDfJZs8peK9rVvmQN8lmzyl4r2tW+ZA3yWbPKXiva1b5kDfJZs8peK9rVvmQN8lmzyl4r2tW+ZA3yWbPKXiva1b5kDfJZs8peK9rVvmQN8lmzyl4r2tW+ZA3yWbPKXiva1b5kDfJZs8peK9rVvmQN8lmzyl4r2tW+ZA3yWbPKXiva1b5kDfJZs8peK9rVvmQN8lmzyl4r2tW+ZA3yWbPKXiva1b5kHdYV3VeZl0W+MLyx1iS8rvrQ+jrU57zq/SSwj/Kkm06ZZoEH14vzjzZuL6G3WHNHFdvuO1/as1rlvWt/BP3e5NDiB5rfJZs8peK9rVvmQN8lmzyl4r2tW+ZA3yWbPKXiva1b5kDfJZs8peK9rVvmQN8lmzyl4r2tW+ZA3yWbPKXiva1b5kDfJZs8peK9rVvmQN8lmzyl4r2tW+ZA3yWbPKXiva1b5kDfJZs8peK9rVvmQN8lmzyl4r2tW+ZA3yWbPKXiva1b5kDfJZs8peK9rVvmQN8lmzyl4r2tW+ZA3yWbPKXiva1b5kDfJZs8peK9rVvmQN8lmzyl4r2tW+ZA3yWbPKXiva1b5kDfJZs8peK9rVvmQN8lmzyl4r2tW+ZA3yWbPKXiva1b5kDfJZs8peK9rVvmQN8lmzyl4r2tW+ZA3yWbPKXiva1b5kDfJZs8peK9rVvmQN8lmzyl4r2tW+ZA3yWbPKXiva1b5kDfJZs8peK9rVvmQN8lmzyl4r2tW+ZA3yWbPKXiva1b5kDfJZs8peK9rVvmQN8lmzyl4r2tW+ZA3yWbPKXiva1b5kDfJZs8peK9rVvmQTXuMc7cwsX7pPCN035jjEF8XXaIWv6axW68alWjU1bLVml1pYx0R0RhCMOeCbgtIh3kGQAAAAAAAAAAAUCNgACZtxt40GXfrCf4eqmi5OTwYMjkAAACunsp/wD3ty8/I239WiudGjTQAAAAAAAAAAAAAAAAAAAAAAAAAAAAAAAAAAAA9dhTClmmsM9/X9NNZrjozaJZIdypa5/Nyf6x8iDrcWYstOKrdJUqSy2ax0Jfo7NY6Xcp0JPJCEP84+UHRqAAAAAAAAAAAAAAAAAAAAAAAAAAPS4Qxf8AsL6awW6j9fuO1/ZtNkmj/jkj5JocaBi/CH7C+ht1hrfX7jtf2rNbJYe2Sfimh5YA80oAAAAAAAAAAAAAAAAAAAAAAAAAAAAAAAAn3cHeNZgn8LZ8JWTRb7DvMjIAAAAAAAAAAAKBGwABM2428aDLv1hP8PVTRcnJ4MGRyAAABXT2U/8A725efkbb+rRXOjRpoAAAAAAAAAAAAAAAAAAAAAAAAAAAAAAAAAAAeuwphSzTWKa/r+mms9x0ZtEskvcqWueH/Lk/1j5EHW4rxXacVW6WpUlls1koy/R2ax0u5ToSeSEIf5x8oOjUAAAAAAAAAAAAAAAAAAAAAAAAAAAAelwhi/8AYX01ht1H6/cdr+zabJNH/HJHyTQ8kUDF+EP2F9DbrDW+v3Ha/tWa1yw/wTw8k0PLAHmlAAAAAAAAAAAAAAAAAAAAAAAAAAAAAAAE+7g7xrME/hbPhKyaLfYd5kZAAAAAAAAAAABQI2AAJm3G3jQZd+sJ/h6qaLk5PBgyOQAAAK+uydYcve/cV4Bmuy6LwvKWlYrZCeaxWSpWhJGNSlohGMksdGnRHvrg0o7XuK/Ra/dl2joKHa9xX6LX7su0dADte4r9Fr92XaOgB2vcV+i1+7LtHQA7XuK/Ra/dl2joAdr3Ffotfuy7R0AO17iv0Wv3Zdo6AHa9xX6LX7su0dADte4r9Fr92XaOgB2vcV+i1+7LtHQA7XuK/Ra/dl2joAdr3Ffotfuy7R0AO17iv0Wv3Zdo6AHa9xX6LX7su0dADte4r9Fr92XaOgB2vcV+i1+7LtHQA7XuK/Ra/dl2joAdr3Ffotfuy7R0AO17iv0Wv3Zdo6AHa9xX6LX7su0dADte4r9Fr92XaOgB2vcV+i1+7LtHQA7XuK/Ra/dl2joAdr3Ffotfuy7R0AO17iv0Wv3Zdo6AHa9xX6LX7su0dADte4r9Fr92XaOgB2vcV+i1+7LtHQA7XuK/Ra/dl2joAdr3Ffotfuy7R0AO17iv0Wv3Zdo6AHa9xX6LX7su0dADte4r9Fr92XaOgB2vcV+i1+7LtHQA7XuK/Ra/dl2joA9ThLJy/KtCrfF+YevuhdNmj3KEt3V/prVP5JJJdTTo45u9AHxYrunGmKrdLUqYTvuz2OjL9HZrHSuq0Qp0JId6EIantj5QdH2vcV+i1+7LtHQA7XuK/Ra/dl2joAdr3Ffotfuy7R0AO17iv0Wv3Zdo6AHa9xX6LX7su0dADte4r9Fr92XaOgB2vcV+i1+7LtHQA7XuK/Ra/dl2joAdr3Ffotfuy7R0AO17iv0Wv3Zdo6AHa9xX6LX7su0dADte4r9Fr92XaOgB2vcV+i1+7LtHQA7XuK/Ra/dl2joAdr3Ffotfuy7R0AO17iv0Wv3Zdo6AHa9xX6LX7su0dADte4r9Fr92XaOgB2vcV+i1+7LtHQA7XuK/Ra/dl2joAdr3Ffotfuy7R0AO17iv0Wv3Zdo6AHa9xX6LX7su0dADte4r9Fr92XaOgB2vcV+i1+7LtHQA7XuK/Ra/dl2joAdr3Ffotfuy7R0AO17iv0Wv3Zdo6AHa9xX6LX7su0dADte4r9Fr92XaOgB2vcV+i1+7LtHQB6XCF2YruL6aw27CF+2+47X9m02Oa67R+6eT7Hcmh5Ig/LF2TGJbkr0rRd9xXxeF1WqGvZ68l214zQh/NnlhJplmhxRB5/te4r9Fr92XaOgB2vcV+i1+7LtHQA7XuK/Ra/dl2joAdr3Ffotfuy7R0AO17iv0Wv3Zdo6AHa9xX6LX7su0dADte4r9Fr92XaOgB2vcV+i1+7LtHQA7XuK/Ra/dl2joAdr3Ffotfuy7R0AO17iv0Wv3Zdo6AHa9xX6LX7su0dADte4r9Fr92XaOgB2vcV+i1+7LtHQA7XuK/Ra/dl2joAdr3Ffotfuy7R0AO17iv0Wv3Zdo6AHa9xX6LX7su0dADte4r9Fr92XaOgB2vcV+i1+7LtHQA7XuK/Ra/dl2joAdr3Ffotfuy7R0AO17iv0Wv3Zdo6AHa9xX6LX7su0dADte4r9Fr92XaOgB2vcV+i1+7LtHQA7XuK/Ra/dl2joAdr3Ffotfuy7R0AO17iv0Wv3Zdo6AHa9xX6LX7su0dADte4r9Fr92XaOgCdtw9g7EF07qDBtqt1wXtYrLThbNevabBWpU5dNlqwhpmmlhCHdjCHdiaLZYd5kZAAAAAAAAAAABQI2AAJm3G3jQZd+sJ/h6qaLk5PBgyOQAAAMRlhHj9oMasOf2xA1Yc/tiBqw5/bEDVhz+2IGrDn9sQNWHP7YgasOf2xA1Yc/tiBqw5/bEDVhz+2IGrDn9sQNWHP7YgasOf2xA1Yc/tiBqw5/bEDVhz+2IGrDn9sQNWHP7YgasOf2xA1Yc/tiBqw5/bEDVhz+2IGrDn9sQNWHP7YgasOf2xA1Yc/tiBqw5/bEDVhz+2IGrDn9sQNWHP7YgasOf2xA1Yc/tiBqw5/bEDVhz+2IGrDn9sQNWHP7QNWHP7YgasOf2xA1Yc/tiBqw5/bEDVhz+2IGrDn9sQNWHP7YgasOf2xA1Yc/tiBqw5/bEDVhz+2IGrDn9sQNWHP7YgasOf2xA1Yc/tiBqw5/bEDVhz+2IGrDn9sQNWHP7YgasOf2xA1Yc/tiBqw5/bEDVhz+2IGrDn9sQNWHP7YgasOf2xA1Yc/tiBqw5/bEDVhz+2IGrDn9sQNWHP7YgasOf2xA1Yc/tiBqw5/aBqw5/bEDVhz+2IGrDn9sQNWHP7YgasOf2xA1Yc/tiBqw5/bEDVhz+2IGrDn9sQNWHP7YgasOf2xA1Yc/tiBqw5/bEDVhz+2IGrDn9sQNWHP7YgasOf2xA1Yc/tiBqw5/bEDVhz+2IGrDn9sQNWHP7YgasOf2xA1Yc/tiBqw5/bEDVhz+2IGrDn9sQNWHP7YgasOf2xA1Yc/tiBqw5/bEGYSwhx+0GQAAAAAAAAAAAAUCNgACZtxt40GXfrCf4eqmi5OTwYMjkAAAAAAAAAAAAAAAAAAAAAAAAAAAAAAAAAAAAAAAAAAAAAAAAAAAAAAAAAAAAAAAAAAAAAAAAAAAAAAAAAAAAAAAAAAAAAAAAAAAAAAAAAAAAAAAAAAAAAAACgRsAATNuNvGgy79YT/D1U0XJyeDBkcgAAAAAAAAAAAAAAAAAAAAAAAAAAAAAAAAAAAAAAAAAAAAAAAAAAAAAAAAAAAAAAAAAAAAAAAAAAAAAAAAAAAAAAAAAAAAAAAAAAAAAAAAAAAAAAAAAAAAAAAUCNgACZtxt40GXfrCf4eqmi5OTwYMjkAAAAAAAAAAAAAAAAAAAAAAAAAAAAAAAAAAAAAAAAAAAAAAAAAAAAAAAAAAAAAAAAAAAAAAAAAAAAAAAAAAAAAAAAAAAAAAAAAAAAAAAAAAAAAAAAAAAAAAACgRsAATNuNvGgy79YT/D1U0XJyeDBkcgAAAAAAAAAAAAAAAAAAAAAAAAAAAAAAAAAAAAAAAAAAAAAAAAAAAAAAAAAAAAAAAAAAAAAAAAAAAAAAAAAAAAAAAAAAAAAAAAAAAAAAAAAAAAAAAAAAAAAAAUCNgACZtxt40GXfrCf4eqmi5OTwYMjkAAAAAAAAAAAAAAAAAAAAAAAAAAAAAAAAAAAAAAAAAAAAAAAAAAAAAAAAAAAAAAAAAAAAAAAAAAAAAAAAAAAAAAAAAAAAAAAAAAAAAAAAAAAAAAAAAAAAAAACgRsAATNuNvGgy79YT/AA9VNFycngwZHIAAAAAAAAAAAAAAAAAAAAAAAAAAAAAAAAAAAAAAAAAAAAAAAAAAAAAAAAAAAAAAAAAAAAAAAAAAAAAAAAAAAAAAAAAAAAAAAAAAAAAAAAAAAAAAAAAAAAAAAFAjYAAmLceV5LPunsupqk0JJY3lNLCMeONCrCEP3xjCCaLl5PBgyOQAAAAAAAAAAAAAAAAAAAAAAAAAAAAAAAAAAAAAAAAAAAAAAAAAAAAAAAAAAAAAAAAAAAAAAAAAAAAAAAAAAAAAAAAAAAAAAAAAAAAAAAAAAAAAAAID3QW7CwtudsUXbcd+XTe15Wq3WP67JNd0tKMskmvGSEJteeWOmMZY+wEX8KHl56LYn93ZutWBwoeXnotif3dm60gQ7KFl5GOj/ZbE/u7N1pBs9lPmPYc3MvbkxfdtmtNjsN60Y1qVC1wlhVkhCaaX7WrGMNP2Y96KD1wAAKI8wcO1MIY+xLcVaXUqXbeVpskZdGjRqVZoQ/uhBodAoA7XCeJrbgvFVz4gu6MJbfdVspW2hGPejPTnhNCEeaOjRHmjFBdvlTmdcub+BLqxVcNolrWG3U4TRp6Ya9CpDw6U8PJPJHTCMP396MGR68AAAAAAAAAAAAAAAAAAAAAAAAAAAAAAAAAAAAAAAAAAAAAAAAAAAAAAAAAAAAAAAAAAAAAAAAAAAAAAAAAAAAAAAAAAAAAAAAAAAAAAAAAAAAAAHy3jeNmumwWi22y0UrLZLPTmq1q9aeEslOSWGmaaaMe5CEIQjGMQU0bqjOKlnlnTfWIrFNNG5qcJLBduvCMIxs1LTCE+iPe15ozz6PJCaEGsESqAMTTQkljNHvSw0xBdfuZsNT4RyAy/uqrLqVqNy2aapLxTzyQqTQ9s8WBJoAAKoeyG5aVMD5+2m+6VLUu7E9nkt9OeWH2fp5IQp15dPHphJP8A+I1g1iUAASNktugMaZC31UtuFbxhJZrRGWNruy1Sxq2S1aO9ryaYaJod6E0sYTQ72nR3EG29y9lRklsVOW98uqk1rhD7c9gvWX6OaPNLPT0w9sUg+/hUro5Oby2pS6BA4VK6OTm8tqUugQOFSujk5vLalLoEDhUro5Oby2pS6BA4VK6OTm8tqUugQOFSujk5vLalLoEDhUro5Oby2pS6BA4VK6OTm8tqUugQOFSujk5vLalLoEDhUro5Oby2pS6BA4VK6OTm8tqUugQOFSujk5vLalLoEDhUro5Oby2pS6BA4VK6OTm8tqUugQOFSujk5vLalLoEDhUro5Oby2pS6BA4VK6OTm8tqUugQOFSujk5vLalLoEDhUro5Oby2pS6BA4VK6OTm8tqUugQOFSujk5vLalLoEDhUro5Oby2pS6BA4VK6OTm8tqUugQOFSujk5vLalLoEDhUro5Oby2pS6BA4VK6OTm8tqUugQOFSujk5vLalLoEDhUro5Oby2pS6BA4VK6OTm8tqUugQejursj92Wu4bRfVuwHb7su6n9mlPUvGnNPaJ/5skupDTzx70CDzseypXPp7mXN5aPWdLoEGOFSujk5vLalLoEDhUro5Oby2pS6BA4VK6OTm8tqUugQOFSujk5vLalLoEDhUro5Oby2pS6BA4VK6OTm8tqUugQOFSujk5vLalLoEDhUro5Oby2pS6BA4VK6OTm8tqUugQOFSujk5vLalLoEDhUro5Oby2pS6BA4VK6OTm8tqUugQOFSujk5vLalLoEDhUro5Oby2pS6BA4VK6OTm8tqUugQOFSujk5vLalLoEDhUro5Oby2pS6BA4VK6OTm8tqUugQOFSujk5vLalLoEDhUro5Oby2pS6BA4VK6OTm8tqUugQOFSujk5vLalLoEDhUro5Oby2pS6BA4VK6OTm8tqUugQOFSujk5vLalLoEDhUro5Oby2pS6BA4VK6OTm8tqUugQOFSujk5vLalLoEDhUro5Oby2pS6BA4VK6OTm8tqUugQOFSujk5vLalLoEDhUro5Oby2pS6BA4VK6OTm8tqUugQOFSujk5vLalLoEDhUro5Oby2pS6BA4VK6OTm8tqUugQOFSujk5vLalLoEDhUro5Oby2pS6BA4VK6OTm8tqUugQOFSujk5vLalLoEDhUro5Oby2pS6BA4VK6OTm8tqUugQOFSujk5vLalLoEDhUro5Oby2pS6BA4VK6OTm8tqUugQOFSujk5vLalLoEDhUro5Oby2pS6BA4VK6OTm8tqUugQOFSujk5vLalLoEDhUro5Oby2pS6BA4VK6OTm8tqUugQc6XZULlmqyQqZeXnJJGOiaaF5UoxhDj0andIO+xN2SG7rgs9lttHANuvG6rVLpo22heVOEsY+WWaEZPszQ4iDz3CpXRyc3ltSl0CBwqV0cnN5bUpdAgcKldHJzeW1KXQIHCpXRyc3ltSl0CBwqV0cnN5bUpdAgcKldHJzeW1KXQIHCpXRyc3ltSl0CBwqV0cnN5bUpdAgcKldHJzeW1KXQIHCpXRyc3ltSl0CBwqV0cnN5bUpdAgcKldHJzeW1KXQIHCpXRyc3ltSl0CBwqV0cnN5bUpdAgcKldHJzeW1KXQIHCpXRyc3ltSl0CBwqV0cnN5bUpdAgcKldHJzeW1KXQIHCpXRyc3ltSl0CBwqV0cnN5bUpdAgcKldHJzeW1KXQIHCpXRyc3ltSl0CBwqV0cnN5bUpdAgcKldHJzeW1KXQIHCpXRyc3ltSl0CD8rV2VO7oUJ/q+XFtmraPswrXtTll088YU4xINbM+t2NjzPuyz3XbqlC4cNTRhGa57sjNq1tEdMPpqkftVNHf0dyX+rpWCC1AAHtclcuq+bOa+F8KUJJppLxtsktomlhp1LPL9utNH8Kcs379CC8Gz0ZLPRkpUpIU6cksJZZZYaISwhDRCHsZH6gAAgjdj5DRz2yitVju+jLPiW6Zo2+6ox7kZ6kJYwno6eKpLpl/tQkj5FFPtWlPQqz0qtOalVkmjLPTqS6s0s0I6IwjCPejCMIwjDmaHEAAAAAAAAAAAAAAAAAAAAAAAAAAAAAAAHr8J4Ts01hmv+/pprPcdGbRLJDuVLXP/Mk/1j5EHWYsxZacVW6WpUlls9jow+js1kpdynRk8kIQ4+OIOjUAAAAAAAAAAAAAAAAAAAAAAAAAAAAAAAAAAAAAAAAAAAAAAAAAAAAemwhjD9hfTWC30fr9x2v7Npsk0f8AHJxTQ40DGGD/ANhfQ2+w1vr9x2v7Vmtcv/on4pocQPMqAAAAAAAAAAAAAAAAAAAAAAAAAAAALGuxvZA1MO3Ba8y76s0adtvil9WuinUh9qnZNOmet3e99JNCGj+rJCPemZ0bwQhoQZAABiMNMAaE7ujccWi9LXb8ysC2Gavap4RrX3c9nk0z1Y6O7aaUsO/N/Plh3Y+FDu6dNzRX3COmDQAAAAAAAAAAAAAAAAAAAAAAAAAAAAAA9fhPCdmmsM1/3/NNZrjozaJZIdypa5/Nyf6x8iDrMWYstOKrdLUqSy2ex0Zfo7NY6Xcp0ZPJCEP84+UHRqAAAAAAAAAAAAAAAAAAAAAAAAAAAAAAAAAAAAAAAAAAAAAAAAAAAAAAPTYQxh+wvprBb6P1+47X9m02SaP+OTimhxoGMMIfsH6G3WCt9fuO1/as1rlh/gn4poeWAPMqAAAAAAAAAAAAAAAAAAAAAAAAAH4A2d3HW5CtueF92fEmJLNUsuArJU1oxnhGWa9J5Y/9lT/+3p7k88OeWHd0xlm6LWLJZKNhs1Kz2elJQoUpIU6dKnLCWWSWENEIQhDuQhCEIQ0Mj9gAAAAYjDTAGpe6U3A2Hs17Ta8Q4Qq0MK4pqxjUrUtT/gbbP5Yzyy92nPHyzyw7vlljHurmivLM/I/HOTdums+LcO2u7KWtqyW6Ev0lkq88laXTLH8IxhHmWjw0I6YaYd2HHBQAAAAAAAAAAAAAAAAAAAAAAAAAAB6/CeE7NNYZr/v+aaz3HRm0SyQ7lS1z+bk/1j5EHWYsxZacVW6WpUlls1joy/R2ax0u5ToSeSEIf5x8oOjUAAAAAAAAAAAAAAAAAAAAAAAAAAAAAAAAAAAAAAAAAAAAAAAAAAAAAAAAemwfjD9g/TWG30fr9x2v7Npsc0f8cnFNDyRQMYYP/YP0NvsNb6/cdr+1ZrXLD/BPxTQ4geZUAAAAAAAAAAAAAAAAAAAAAAId0Hd4OwNiHMO9pbswxcluv63TR0fQ2ChGpq880YdySHPNGEEG8u577G7CzV7NfealelaIyRhPJhuxVNanGPFaK0PCh/Uk7nHNGHcSjfO77vs11WKhY7HZ6VkslCSFKlQoSQkp05IQ0Qlllh3IQhDuQhBkfQoAAAAAAA/C2WKhb7NUs9po07RZ6sNWelVlhNJPDijCPciCGsX7jPJvGlarXtuBrBZLVUjpjXuuaexTaePRSmll9sAR/aOxs5QV6sZ5IYhs8se9JTvWMYQ/ikjH+9aPz4NPKLz2JNpw6socGnlF57Em04dWUODTyi89iTacOrKHBp5ReexJtOHVlDg08ovPYk2nDqyhwaeUXnsSbTh1ZQ4NPKLz2JNpw6socGnlF57Em04dWUODTyi89iTacOrKHBp5ReexJtOHVlDg08ovPYk2nDqyhwaeUXnsSbTh1ZQ4NPKLz2JNpw6socGnlF57Em04dWUODTyi89iTacOrKHBp5ReexJtOHVlDg08ovPYk2nDqyhwaeUXnsSbTh1ZQ4NPKLz2JNpw6socGnlF57Em04dWUODTyi89iTacOrKHBp5ReexJtOHVlDg08ovPYk2nDqyhwaeUXnsSbTh1ZQ4NPKLz2JNpw6so50uxrZQ0qsk8Z8RVISx06k95w0R5o6KZR2mIux+ZY4nq0JrXaMQyUqEkKdCz0LxlkpUpYeSWX6P8Av75R1HBp5ReexJtOHVlDg08ovPYk2nDqyhwaeUXnsSbTh1ZQ4NPKLz2JNpw6socGnlF57Em04dWUODTyi89iTacOrKHBp5ReexJtOHVlDg08ovPYk2nDqyhwaeUXnsSbTh1ZQ4NPKLz2JNpw6socGnlF57Em04dWUODTyi89iTacOrKHBp5ReexJtOHVlDg08ovPYk2nDqyhwaeUXnsSbTh1ZQ4NPKLz2JNpw6socGnlF57Em04dWUODTyi89iTacOrKHBp5ReexJtOHVlDg08ovPYk2nDqyhwaeUXnsSbTh1ZQ4NPKLz2JNpw6socGnlF57Em04dWUODTyi89iTacOrKHBp5ReexJtOHVlDg08ovPYk2nDqyhwaeUXnsSbTh1ZQ4NPKLz2JNpw6socGnlF57Em04dWUODTyi89iTacOrKHBp5ReexJtOHVlDg08ovPYk2nDqyhwaeUXnsSbTh1ZQ4NPKLz2JNpw6socGnlF57Em04dWUODTyi89iTacOrKHBp5ReexJtOHVlDg08ovPYk2nDqyhwaeUXnsSbTh1ZQ4NPKLz2JNpw6socGnlF57Em04dWUODTyi89iTacOrKHBp5ReexJtOHVlDg08ovPYk2nDqyhwaeUXnsSbTh1ZQ4NPKLz2JNpw6socGnlF57Em04dWUODTyi89iTacOrKHBp5ReexJtOHVlDg08ovPYk2nDqyhwaeUXnsSbTh1ZQ4NPKLz2JNpw6socGnlF57Em04dWUODTyi89iTacOrKHBp5ReexJtOHVlDg08ovPYk2nDqyhwaeUXnsSbTh1ZQ4NPKLz2JNpw6socGnlF57Em04dWUd1c3Y/8sLlu+2XfTq3/AGiwWuGirZbTeEJ5NPkmh/u9MJoccIlHSx7GnlFGMf8Ae4kh/wCZw6socGnlF57Em04dWUODTyi89iTacOrKHBp5ReexJtOHVlDg08ovPYk2nDqyhwaeUXnsSbTh1ZQ4NPKLz2JNpw6socGnlF57Em04dWUODTyi89iTacOrKHBp5ReexJtOHVlDg08ovPYk2nDqyhwaeUXnsSbTh1ZQ4NPKLz2JNpw6socGnlF57Em04dWUODTyi89iTacOrKHBp5ReexJtOHVlDg08ovPYk2nDqyhwaeUXnsSbTh1ZQ4NPKLz2JNpw6socGnlF57Em04dWUODTyi89iTacOrKHBp5ReexJtOHVlGZexqZQyzQjGpiOaEPJG9IaI/8A4yj12GdwhkrhueWp/shLetWWOmE162ytaYfwTTasfYgm24MM3ThW75LBct2WO6LDJ4NmsNCSjTh/0ywhAHZgyAAAAAAAAAAAAAAAAAAAAAAAAAAAAAAAAAAAAAAAAAAAAAAAAAAAAAAAAAAAAAAAAAAAAAAAAAAAAAAAAAAAAAAAAAAAAAAAAAAAAAAAAAAAAAAAAAAAAAAAAAAAAAAAAAAAAAAAAAAAAAAAAAAAAAAAAAAAAAAAAAAAAAAAAAAAAAAAAAAAAAAAAAAAAAAAAAAAAAAAAAAAAAAAAAAAAAAAAAAAAAAAAAAAAAAAAAAAAAAAAAAAAAAAAAAAAAAAAAAAAAAAAAAAAAAAAAAAAAAAAAAAAAAAAAAAAAAAAAAAAAAAAAAAAAAAAADEY6IAa0Of2Aa0Of2Aa0Of2AQm0x8vsBkAAAAAAAAAAAAAAAAAAAAAAAAAAAAAAAAAAAAAAAAAAAAAAAAAAAAAAAAAAAAAAAAAAAAAAAAAAAAAAAAAAAAAAAAAAAAAAAAAAAAAAAAAAAAAAAAAAAAAAAEK7s22WiwbmPMC0WW0VrLaKdgljJWoVJqc8sfpqfdhNCMIw/cCoibG+JNMf/mO+e//AElX6bQx/ttiT0jvnaVfpgf7bYk9I752lX6YNxOxlYgvW+c1cX07wvW32+nJclOaWS12qpWllj9YlhphCaaMIR500WPIAAAAAAAAAAAAAAAAAAAAAAAAAAAAAAAAAAAAAAAAAAAAAAAAAAAAAAAAAAAAAAAAAAAAAAAAAAAAAAAAAAAAAAAAAAAAAAAAAAAAAAAAAAAAAAAAAAAAAAAIP3bHit5h+r5f1qYKdI9+P4tgADc7sXH3tYx9R0/iJWdFlqAAAAAAAAAAAAAAAAAAAAAAAAAAAAAAAAAAAAAAAAAAAAAAAAAAAAAAAAAAAAAAAAAAAAAAAAAAAAAAAAAAAAAAAAAAAAAAAAAAAAAAAAAAAAAAAAAAAAAAACD92x4reYfq+X9amCnSPfj+LYAA3O7Fx97WMfUdP4iVnRZagAAAAAAAAAAAAAAAAAAAAAAAAAAAAAAAAAAAAAAAAAAAAAAAAAAAAAAAAAAAAAAAAAAAAAAAAAAAAAAAAAAAAAAAAAAAAAAAAAAAAAAAAAAAAAAAAAAAAAAAg/dseK3mH6vl/Wpgp0j34/i2AANzuxcfe1jH1HT+IlZ0WWoAAAAAAAAAAAAAAAAAAAAAAAAAAAAAAAAAAAAAAAAAAAAAAAAAAAAAAAAAAAAAAAAAAAAAAAAAAAAAAAAAAAAAAAAAAAAAAAAAAAAAAAAAAAAAAAAAAAAAAAIP3bHit5h+r5f1qYKdI9+P4tgADc7sXH3tYx9R0/iJWdFlqAAAAAAAAAAAAAAAAAAAAAAAAAAAAAAAAAAAAAAAAAAAAAAAAAAAAAAAAAAAAAAAAAAAAAAAAAAAAAAAAAAAAAAAAAAAAAAAAAAAAAAAAAAAAAAAAAAAAAAACD92x4reYfq+X9amCnSPfj+LYAA3O7Fx97WMfUdP4iVnRZagAAAAAAAAAAAAAAAAAAAAAAAAAAAAAAAAAAAAAAAAAAAAAAAAAAAAAAAAAAAAAAAAAAAAAAAAAAAAAAAAAAAAAAAAAAAAAAAAAAAAAAAAAAAAAAAAAAAAAAAg/dseK3mH6vl/Wpgp0j34/i2AANzuxcfe1jH1HT+IlZ0WWoAAAAAAAAAAAAAAAAAAAAAAAAAAAAAAAAAAAAAAAAAAAAAAAAAAAAAAAAAAAAAAAAAAAAAAAAAAAAAAAAAAAAAAAAAAAAAAAAAAAAAAAAAAAAAAAAAAAAAAAIP3bHit5h+r5f1qYKdI9+P4tgADc7sXH3tYx9R0/iJWdFlqAAAAAAAAAAAAAAAAAAAAAAAAAAAAAAAAAAAAAAAAAAAAAAAAAAAAAAAAAAAAAAAAAAAAAAAAAAAAAAAAAAAAAAAAAAAAAAAAAAAAAAAAAAAAAAAAAAAAAAACD92x4reYfq+X9amCnSPfj+LYAA3O7Fx97WMfUdP4iVnRZagAAAAAAAAAAAAAAAAAAAAAAAAAAAAAAAAAAAAAAAAAAAAAAAAAAAAAAAAAAAAAAAAAAAAAAAAAAAAAAAAAAAAAAAAAAAAAAAAAAAAAAAAAAAAAAAAAAAAAAAg/dseK3mH6vl/Wpgp0j34/i2AANzuxcfe1jH1HT+IlZ0WWoAAAAAAAAAAAAAAAAAAAAAAAAAAAAAAAAAAAAAAAAAAAAAAAAAAAAAAAAAAAAAAAAAAAAAAAAAAAAAAAAAAAAAAAAAAAAAAAAAAAAAAACUFAAAAAAAAAAAAAAEH7tjxW8w/V8v61MFOke/H8WwABud2Lj72sY+o6fxErOiy1AAABgGQAAAAAAAAAAAAAAAAAAAAAAAAAAAAAAAAAAAAAAAAAAAAAAAAAAAAAAAAAAAAAAAAAAAAAAAAAAAAAAAAAAAAAAAAAAAY0ga0AfPbbyst20I1rXaKVlow79SvPCSWH74xgDwl/bojLHDMI/tPH+HLLNDvyRvOlNPD/AKZZox/uB4O993hkjdMsdGNZLdPD+TYbDaK398Kej+8Hj7x7JZlHY4xhQo4jvDRHRCNC7YSQjz/7ypKsHlLx7KTg6lrfUcFYgtWiPcjWq2elCMP3TTEHQ2zsqlmhGMLJltXmh5I2i+JZY+yWlH/Mg6G1dlOv6aE31bL27acfJGtelSbR+MIU4EHU1uyjY7jCP0WDcOSR8mvWtE//ALoLB8FXsn2Zs0Y6mHsKyQ4voLRH/wD2IOur9kszaqzfYsmGaMOKF31Y/wCdYg+WfskWcM8sYSxw5Jzwuubue2qQfJU7IrnPP4NvuSn/AGbpl/1niQfjN2Q3OqMe5fN0whzXRT+ZBxj2QvOyP/65dUP/ACikQY4QrOz+nbr2RSSBwhWdn9O3XsikQOEKzs/p269kUiBwhWdn9O3XsikQOEKzs/p269kUiBwhWdn9O3XsikQOEKzs/py69kUlg6DH27RzVzMwhemGL/va77Rc95UvobTSo3bTpTzS60Ju5NDuw7sIEEHfioAA93lDnbizIy+rfeuELXZrHbbbZ4WWtNabLLXhGnCbWhCEJu9HTDvoJV4QrO3+nLr2RS+ZA4QrOz+nLr2RSIHCFZ2f07deyKSQOEKzs/p269kUiBwhOdn9O3XsikQOEKzs/p269kUiBwhWdv8ATt17IpEGeELzs/py64/+UUlg5Q7IbnXDv3zdMfxuin8yD9JOyKZ0S9+8rln5prpl/wBJiD7KXZIM4qcNE0+HqnPNdc3+lWBB9FLslGbskdM1nw1U/G7qkP8AKsQdjR7J1mhTlhCe4sK1Yw78Y2a0Q0+ysQffQ7KJmBLD/fYRw1VjxyTWiT/3xIOzsnZTMTSS/wDFYBuirHjo3jWk/wA5Jkg72w9lUjCEsLZlrGMf5UbPfMP7oTUSDvrv7KZherN/xuBL8s8OOharPV/zjKQepu3smmVVqlhC1XbiawTRh3dew06kIR/6KsY/3EHrro3f+SV66IVMVVrumjo7ltuy0yf3wkjD+9B7m4d1DlLiSMstgzEw7PPN3pK1vkozeypqxBIN04huu/qX0t23jZLwp9/XsleSrD2yxiD79aH4fiDMI6QZAAAAAAAAAAAAAAAAAAAAAAAAAAAAAAAAAAAAAAAAAAAAAAAAAAAAAAAAAAAAAAAAAAAAAABiMYQB5nG+ZuFMtrD9cxRiG7rhs+jTLG3WmWnNP/ZljHWmjzQhEGtWPOyW5bYdnq0cO2C9sW15Y6IVKNGFks83/XV+1o/CSKwQBjLsm2Yl8xqU8P3HcmHKMY/ZqVJZ7bWh++aMsn+EghjFG6xzgxhNP+0MwL4pU5+5NRu+pLY5NHFoowl/zWCMb0ve8L9rTVbzt9qvKrNHTGe22ietNH988Yg+OSSWTwZYS/2YaFGY90DQAAAAAAAAAAAAAAAAAAAAAAAAAAAAAAAAAAAAAAABoAh3O8BH7UNEe7Dn7oOdkr1bvqwq2SrPZKkO7CpZ5405ofvl0RQSFhjdG5pYO1IXTj+/7PTkj3KNW2zWin/BV1of3EEyYR7JFmzh+Mst7SXJiejDuR+t2SNnqx/66UYQ0/8ATFIJ5wN2UHCN5zU6WK8LXrcFSMIQjaLBPLbaMI8cYfYnhD8JYkGyuXW6Dy8zYhLLhbFt3XnaZv8A6P6X6K0w/GjPqz/3IJDhNCIMgAAAAAAAAAAAAAAAAAAAAAAAAAAAAAAAAAAAAAAAAAAAAAAAAAAAAAAAAAAAAAAAAAxGOgEUZ27prAeQ1j/+Y71+kvWeTXoXNYYQq2yrDyR1NP2Jf608YQ54g0Fzf7IjmJj2pXsmF4U8D3RNplhGyRhVt08v9atGGiSP9iWGj+dFqDV+9L0tt+XhVt95Wy0XjbqsdNS1WurNWqzx555oxjH2g+ZQAAAAAAAAAAAAAAAAAAAAAAAAAAAAAAAAAAAAAAAAAAAAAAAAAAAAljGSpJPLGMs8kdMs8I6Iyx44R78AT5lJu3M0sqJ6Fn/bMcUXNT0Qjd1+xmraJeKSt/2knN3Yw5kg31yH3cGAM6alnuyvXmwrierolluu86ksJK03FRrdyWf+zHVm/qoNiYRQZAAAAAAAAAAAAAAAAAAAAAAAAAAAAAAAAAAAAAAAAAAAAAAAAAAAAAAAAAAAAAABiMdEAaLbrHd9ww5ardg/LK0UrReVOMaNtxFCEKlOzzQ7k0lnh3p54d6M8dMsse5CE0e7C5gr3vK87Zfd4Wm8Lxtde3W+0zxq17TaakalWrPHvzTTR0xjH8Wh8wAAAAAAAAAGnQBpA0R4ogaI8UQO95AY1oQ8sANeX+dD2g4xqyQ/ly/xQA+npw/5kn8UAY+sUvO0/wCOAH1il52n/HAD6xS87T/jgB9Ypedp/wAcAPrFLztP+OAH1il52n/HAD6xS85J/HAGYV6cf+ZJ/FAD6an5yT+KAH01Pzkn8UAPpqfnJP4oARrU4f8AMk/igDH1il5yT+OAM/T0vOyfxQA+npedp/xwBj6xS87T/jgB9Ypedp/xwA+sUvO0/wCOAH1il52n/HAGYV6Uf+bJ/HAGfpZP58v8UAIVJY/yoe2AM68vHD2gzDugaI8UQNEeKIACAoAAAAAAAAARhpBt5uXN3pfOW1osmG8f2i0X9hWOilSvKfTVtl3Q70NMe/WpQ4o6ZpYd6MdGqzBZhcl+WDEl0WS9LrtlG33da6Utaz2qzzwnp1ZJoaYTSxh34RZH3qAAAAAAAAAAAAAAAAAAAAAAAAAAAAAAAAAAAAAAAAAAAAAAAAAAAAAAAAAAAAMR7iDR3sgG6rr4UoVcs8JW2ahe9qowjfNuoTaJ7LRnh3KEkYd6eeWOmaPflkjCHfm7mswVzQhCEIQhDRCHchCHeg0MgAAAAzRkmtFaWjSlmq1po6IUqcIzTx/CEO6CQcM7nnM/GEsk90YBxBa6M/g1p7DPRpx/66mrD+9KJOuPse+dN8akbRcl23PJN3dN4XpT0w/GFPXiUSBdHYucb2jVjeeMsP2GEe/CzUK9ojD2wkglHtbt7FbYZZZY3hmNa6k3c0y2O6pJIc/dmqTFHrLt7F7l3Rh/xuJsT2yP9SrZ6UP7qUSj0Vi7G5k9ZZoRq0b+tkP5te9ZoQj/AASylHfWLcAZIWSXRPhOvao8de9bVGP91SCDtqG4gyQs8sIS5fWCfR5atotE8f76kQdjZtx9kxZIfYy4uGb/APts8an/AKoxB91Dcr5Q2eMNTLfDUNHHd1OP+cAdjS3O2VtGSEsuXWFoQhx3PQj/AO0H708g8tKfg5e4Wh+Fz2foA+inkll5T8DAeGZfwuez9AH6y5PYEk8HBWHZfwumzw/9gOfakwP6G4f2VQ6AHakwR6HYf2VQ6AM9qXBHodh/ZdDoAx2o8D+h2H9lUOgB2pMD+huH9lUOgB2o8Dx//ZuH9l0OgDj2n8C+heHdk2foAxHJ7Ak3fwVhyP43TZ+gB2nMBehOHNkWfoA49pnAHoNhrZFn6AMwycwFCHcwRhyEOa6LP0AZhk7gOEdMMFYchHj/AGTZ+gDPafwL6F4d2TZ+gDMMo8Dw72DMPQ/C6qHQBntSYH9DcP7KodADtR4H9DsP7KodAGYZSYIhD/udh/ZdDoARykwRGH/c7D+y6HQBjtSYH9DcP7KodAHGbKDA0/hYLw7N+N1WfoA/KfJXL6p4WBMMzfjc9n6APnnyGy1qeFl9heb8bns/QB+M+56yvqQjCbLrCsdP/wDD2foA+C0bl7KS06fpMuMMx08V205f8oA+GvuRMmrRLqz5b4fhDjp2SEkfbCMAddV3E2SNaEdbLy7JdPm6laSP91RaOqtm4HyPtUkYS4Oms8Y/yqF52qWMP/yIOitvY48mrVDRSsF82PnoXtVj/wCrWWjz949jEyytEs0bHfmJ7FNHvf8AFUasIfxUtMfaUeVvPsV1yVIzRu/MK87P/Nha7upVdH4xlmkKPGXx2LTFNGM37Kx3c9rhpjohbLDWoRjDyaYyzTlHgr97HLnHdMZvqlmuO+pYd76leUJIx/CFWST/ADWiNMSblfN3Cn0k14Ze35GnJ3ZqtjoQtckIcemjGYojK8bBarmtMbPeFlr2C0Sx0RpWulNRnhH+zNCEQfhxc6gAAABHSDa3cNbqitlLiiz4MxHbIxwXe1eElGrWm7l22mePcnhGPepTxjCE0O9CMYTfztM3BabLHTBkZAAAAAAAAAAAAAAAAAAAAAAAAAAAAAAAAAAAAAAAAAAAAAAAAAAAAAAAAAAAB4rObMmyZRZY4ixdbJYVKd12SarToxjo+mrR+zSp/wDVPNLL+8FJGIL/ALwxVf143ze1pmtl6XhaJ7Vaq83fqVJ5taaP4aY9yHkhog0PgUAEH23Jcd5YmvWz3ZdF32q9LxtEdWjZLHRmq1akeaWWEYxBtRlb2N7MLGElG14qttjwVYZ9EY0an/FWzRH/AO3JGEksf7U+nmKNpMBdjsylwlJTqXrY7di61wh9qe9bTGWlp5qVLVl0c02slE/YVy3wrgahLRw9hy6rkpyw0aLvsdOjGP4xlhpj++KD0erDy90DQgyoAAAAAAAAAAAAAAAAAAAAAAAAAAAAAAAAAAAAAAAAAAxoBjVhDmB1194ZujE1ljZr3uuxXrZo9yNG3WeStJH900IwBB+Odwjk5jaFSeXDEMPWueOn6zcVeayxh/4fdp/4Qax5mdjDxDdUlW1YFxNZr9pywjNC773khZq/4S1ZdMk0fxhItGo2O8ucUZY3xG68VXFbbit3d1KdrpaJakOOSeGmWeHPLGKjzmlQABiMIRhGEYaYRhojCPlBbZuEc6aubeSlmst5WiNov7Dk8Lstc88dM9WnCXTQqx55pPsxj5ZpJosDZAAAAAAAAAAAAAAAAAAAAAAAAAAAAAAAAAAAAAAAAAAAAAAAAAAAAAAAAAAAAGkXZQ8bT3bl/hLC1Gpq/ta8J7ZXllj3Y07PJDVhHm16ssf+lcFcOjQ0AAJb3N25yv3dGYynu2wVP2dcli1al53tPJrS2eSMfsySw/lVJtEdWXvdyMY9yHdgtcyeyGwZkdccLuwrdFOy1J5YQtF4VdE9rtUeOpV0aY/2YaJYeSEGRIcIaAZAAAAAAAAAAAAAAAAAAAAAAAAAAAAAAAAAAAAAAAAAAAAAAAAAABjRpB0ONMB4fzEuGvcuJbosl9XXWhons1rpwnl08cse/LNDyTSxhGHGlFYu6+3GdpyIm/2nw1Ur3lgmvVhTqQrR16921Jo6JZak38unGPcln78I6ITd2MIx1Rq60AANtOxq42qXBnpbrgmnj9Wv+66kv0enuRrUIwqSR/HUjVh+9NFo0O6yMgAAAAAAAAAAAAAAAAAAAAAAAAAAAAAAAAAAAAAAAAAAAAAAAAAAAAAAAAAArV7KPbJ5808GWWM0fo6Vy1asJfJCM9ojCMf8EPY1g0uUAO+C2/cB4SsWGtzNhq12enLC1XzNXvK1VIQ7s881WaSXT+Ekkkv7mdGxiAAAAAAAAAAAAAAAAAAAAAAAAAAAAAAAAAAAAAAAAAAAAAAAAAAAAAADz2YGErFjzBN+4evGlJWsV52KtZass8NMNE0kYafxhHRGEeOEAUS6k1OMZJo600v2Yx44w7kYtAoAmbca2+e791Bl7UkmjLGe3z0Y6vlhPQqyxh/emi5OSOmWDI5AAAAAAAAAAAAAAAAAAAAAAAAAAAAAAA//2Q==;" parent="1" vertex="1">
          <mxGeometry x="315.54999999999995" y="345" width="94.45" height="80" as="geometry" />
        </mxCell>
        <mxCell id="VUYWSvdoOwhASW0aB_cJ-1" value="Описание клиентских путей" style="text;html=1;strokeColor=#82b366;fillColor=#d5e8d4;align=center;verticalAlign=middle;whiteSpace=wrap;rounded=0;fontSize=30;" parent="1" vertex="1">
          <mxGeometry x="1130" y="20" width="710" height="80" as="geometry" />
        </mxCell>
        <mxCell id="VUYWSvdoOwhASW0aB_cJ-4" value="Действия" style="rounded=1;whiteSpace=wrap;html=1;fontSize=18;fillColor=#e1d5e7;strokeColor=#9673a6;" parent="1" vertex="1">
          <mxGeometry x="80" y="240" width="120" height="230" as="geometry" />
        </mxCell>
        <mxCell id="VUYWSvdoOwhASW0aB_cJ-5" value="Этап" style="rounded=1;whiteSpace=wrap;html=1;fontSize=18;fillColor=#e1d5e7;strokeColor=#9673a6;" parent="1" vertex="1">
          <mxGeometry x="80" y="160" width="120" height="60" as="geometry" />
        </mxCell>
        <mxCell id="VUYWSvdoOwhASW0aB_cJ-6" value="Регистрация / Авторизация" style="shape=step;perimeter=stepPerimeter;whiteSpace=wrap;html=1;fixedSize=1;fontSize=16;fillColor=#dae8fc;strokeColor=#6c8ebf;" parent="1" vertex="1">
          <mxGeometry x="240" y="160" width="720" height="60" as="geometry" />
        </mxCell>
        <mxCell id="VUYWSvdoOwhASW0aB_cJ-7" value="Заполнение опциональных полей профиля" style="shape=step;perimeter=stepPerimeter;whiteSpace=wrap;html=1;fixedSize=1;fontSize=16;fillColor=#dae8fc;strokeColor=#6c8ebf;" parent="1" vertex="1">
          <mxGeometry x="1000" y="160" width="520" height="60" as="geometry" />
        </mxCell>
        <mxCell id="VUYWSvdoOwhASW0aB_cJ-9" value="Публикация готового профиля" style="shape=step;perimeter=stepPerimeter;whiteSpace=wrap;html=1;fixedSize=1;fontSize=16;fillColor=#dae8fc;strokeColor=#6c8ebf;" parent="1" vertex="1">
          <mxGeometry x="2120" y="160" width="640" height="60" as="geometry" />
        </mxCell>
        <mxCell id="VUYWSvdoOwhASW0aB_cJ-10" value="" style="shape=actor;whiteSpace=wrap;html=1;" parent="1" vertex="1">
          <mxGeometry x="280" y="355" width="30" height="50" as="geometry" />
        </mxCell>
        <mxCell id="VUYWSvdoOwhASW0aB_cJ-12" value="Вход на сайт" style="rounded=0;whiteSpace=wrap;html=1;fillColor=#f8cecc;strokeColor=#b85450;" parent="1" vertex="1">
          <mxGeometry x="280" y="240" width="140" height="30" as="geometry" />
        </mxCell>
        <mxCell id="VUYWSvdoOwhASW0aB_cJ-14" value="example.com" style="text;strokeColor=none;fillColor=none;html=1;fontSize=11;fontStyle=1;verticalAlign=middle;align=center;" parent="1" vertex="1">
          <mxGeometry x="315.13" y="345" width="88" height="60" as="geometry" />
        </mxCell>
        <mxCell id="VUYWSvdoOwhASW0aB_cJ-21" style="rounded=0;orthogonalLoop=1;jettySize=auto;html=1;exitX=1;exitY=0;exitDx=0;exitDy=0;entryX=0;entryY=0.5;entryDx=0;entryDy=0;" parent="1" source="VUYWSvdoOwhASW0aB_cJ-16" target="oHIoEjeaocd0SmxYD0uX-8" edge="1">
          <mxGeometry relative="1" as="geometry">
            <mxPoint x="660" y="327.5" as="targetPoint" />
          </mxGeometry>
        </mxCell>
        <mxCell id="VUYWSvdoOwhASW0aB_cJ-22" style="rounded=0;orthogonalLoop=1;jettySize=auto;html=1;exitX=1;exitY=1;exitDx=0;exitDy=0;entryX=0;entryY=0.5;entryDx=0;entryDy=0;" parent="1" source="VUYWSvdoOwhASW0aB_cJ-16" target="oHIoEjeaocd0SmxYD0uX-7" edge="1">
          <mxGeometry relative="1" as="geometry">
            <mxPoint x="640" y="405" as="targetPoint" />
          </mxGeometry>
        </mxCell>
        <mxCell id="VUYWSvdoOwhASW0aB_cJ-16" value="Регистрация" style="ellipse;whiteSpace=wrap;html=1;" parent="1" vertex="1">
          <mxGeometry x="500" y="345" width="100" height="50" as="geometry" />
        </mxCell>
        <mxCell id="VUYWSvdoOwhASW0aB_cJ-25" style="rounded=0;orthogonalLoop=1;jettySize=auto;html=1;exitX=1;exitY=0.5;exitDx=0;exitDy=0;entryX=0;entryY=0.5;entryDx=0;entryDy=0;" parent="1" source="oHIoEjeaocd0SmxYD0uX-7" target="VUYWSvdoOwhASW0aB_cJ-23" edge="1">
          <mxGeometry relative="1" as="geometry">
            <mxPoint x="780" y="405" as="sourcePoint" />
          </mxGeometry>
        </mxCell>
        <mxCell id="VUYWSvdoOwhASW0aB_cJ-24" style="rounded=0;orthogonalLoop=1;jettySize=auto;html=1;exitX=1;exitY=0.5;exitDx=0;exitDy=0;entryX=0;entryY=0.5;entryDx=0;entryDy=0;" parent="1" source="oHIoEjeaocd0SmxYD0uX-8" target="VUYWSvdoOwhASW0aB_cJ-23" edge="1">
          <mxGeometry relative="1" as="geometry">
            <mxPoint x="760" y="327.5" as="sourcePoint" />
          </mxGeometry>
        </mxCell>
        <mxCell id="VUYWSvdoOwhASW0aB_cJ-20" value="Вход в аккаунт" style="rounded=0;whiteSpace=wrap;html=1;fillColor=#f8cecc;strokeColor=#b85450;" parent="1" vertex="1">
          <mxGeometry x="435" y="240" width="485" height="30" as="geometry" />
        </mxCell>
        <mxCell id="VUYWSvdoOwhASW0aB_cJ-23" value="Авторизация" style="ellipse;whiteSpace=wrap;html=1;" parent="1" vertex="1">
          <mxGeometry x="820" y="345" width="100" height="50" as="geometry" />
        </mxCell>
        <mxCell id="VUYWSvdoOwhASW0aB_cJ-26" value="" style="endArrow=classic;html=1;rounded=0;entryX=0;entryY=0.5;entryDx=0;entryDy=0;" parent="1" edge="1" target="VUYWSvdoOwhASW0aB_cJ-16">
          <mxGeometry width="50" height="50" relative="1" as="geometry">
            <mxPoint x="420" y="370" as="sourcePoint" />
            <mxPoint x="480" y="370" as="targetPoint" />
          </mxGeometry>
        </mxCell>
        <mxCell id="VUYWSvdoOwhASW0aB_cJ-27" value="" style="endArrow=classic;html=1;rounded=0;entryX=0.5;entryY=1;entryDx=0;entryDy=0;edgeStyle=orthogonalEdgeStyle;curved=1;" parent="1" target="VUYWSvdoOwhASW0aB_cJ-23" edge="1">
          <mxGeometry width="50" height="50" relative="1" as="geometry">
            <mxPoint x="420" y="370" as="sourcePoint" />
            <mxPoint x="490" y="380" as="targetPoint" />
            <Array as="points">
              <mxPoint x="420" y="450" />
              <mxPoint x="870" y="450" />
            </Array>
          </mxGeometry>
        </mxCell>
        <mxCell id="VUYWSvdoOwhASW0aB_cJ-28" value="Использование конкретного сервиса" style="rounded=0;whiteSpace=wrap;html=1;fillColor=#f8cecc;strokeColor=#b85450;" parent="1" vertex="1">
          <mxGeometry x="1040" y="240" width="210" height="30" as="geometry" />
        </mxCell>
        <mxCell id="VUYWSvdoOwhASW0aB_cJ-51" style="edgeStyle=orthogonalEdgeStyle;rounded=0;orthogonalLoop=1;jettySize=auto;html=1;exitX=1;exitY=0.5;exitDx=0;exitDy=0;curved=1;" parent="1" source="VUYWSvdoOwhASW0aB_cJ-29" edge="1">
          <mxGeometry relative="1" as="geometry">
            <mxPoint x="1280" y="490" as="targetPoint" />
            <Array as="points">
              <mxPoint x="1210" y="315" />
              <mxPoint x="1210" y="490" />
            </Array>
          </mxGeometry>
        </mxCell>
        <mxCell id="VUYWSvdoOwhASW0aB_cJ-29" value="Google API" style="shape=parallelogram;perimeter=parallelogramPerimeter;whiteSpace=wrap;html=1;fixedSize=1;" parent="1" vertex="1">
          <mxGeometry x="1080" y="295" width="120" height="40" as="geometry" />
        </mxCell>
        <mxCell id="VUYWSvdoOwhASW0aB_cJ-50" style="edgeStyle=orthogonalEdgeStyle;rounded=0;orthogonalLoop=1;jettySize=auto;html=1;exitX=1;exitY=0.5;exitDx=0;exitDy=0;curved=1;" parent="1" source="VUYWSvdoOwhASW0aB_cJ-30" edge="1">
          <mxGeometry relative="1" as="geometry">
            <mxPoint x="1280" y="490" as="targetPoint" />
            <Array as="points">
              <mxPoint x="1200" y="370" />
              <mxPoint x="1200" y="490" />
            </Array>
          </mxGeometry>
        </mxCell>
        <mxCell id="VUYWSvdoOwhASW0aB_cJ-30" value="HeadHunter API" style="shape=parallelogram;perimeter=parallelogramPerimeter;whiteSpace=wrap;html=1;fixedSize=1;" parent="1" vertex="1">
          <mxGeometry x="1075" y="350" width="120" height="40" as="geometry" />
        </mxCell>
        <mxCell id="VUYWSvdoOwhASW0aB_cJ-49" style="edgeStyle=orthogonalEdgeStyle;rounded=0;orthogonalLoop=1;jettySize=auto;html=1;exitX=1;exitY=0.5;exitDx=0;exitDy=0;curved=1;" parent="1" source="VUYWSvdoOwhASW0aB_cJ-31" edge="1">
          <mxGeometry relative="1" as="geometry">
            <mxPoint x="1280" y="490" as="targetPoint" />
            <Array as="points">
              <mxPoint x="1185" y="490" />
            </Array>
          </mxGeometry>
        </mxCell>
        <mxCell id="VUYWSvdoOwhASW0aB_cJ-31" value="DiceBear API" style="shape=parallelogram;perimeter=parallelogramPerimeter;whiteSpace=wrap;html=1;fixedSize=1;" parent="1" vertex="1">
          <mxGeometry x="1075" y="405" width="120" height="40" as="geometry" />
        </mxCell>
        <mxCell id="VUYWSvdoOwhASW0aB_cJ-34" value="" style="ellipse;shape=doubleEllipse;whiteSpace=wrap;html=1;aspect=fixed;" parent="1" vertex="1">
          <mxGeometry x="240" y="370" width="20" height="20" as="geometry" />
        </mxCell>
        <mxCell id="VUYWSvdoOwhASW0aB_cJ-35" value="" style="endArrow=classic;html=1;rounded=0;" parent="1" edge="1">
          <mxGeometry width="50" height="50" relative="1" as="geometry">
            <mxPoint x="260" y="379.72" as="sourcePoint" />
            <mxPoint x="280" y="380" as="targetPoint" />
          </mxGeometry>
        </mxCell>
        <mxCell id="VUYWSvdoOwhASW0aB_cJ-36" value="" style="ellipse;shape=doubleEllipse;whiteSpace=wrap;html=1;aspect=fixed;" parent="1" vertex="1">
          <mxGeometry x="940" y="360" width="20" height="20" as="geometry" />
        </mxCell>
        <mxCell id="VUYWSvdoOwhASW0aB_cJ-38" value="" style="endArrow=classic;html=1;rounded=0;" parent="1" edge="1">
          <mxGeometry width="50" height="50" relative="1" as="geometry">
            <mxPoint x="920" y="369.46000000000004" as="sourcePoint" />
            <mxPoint x="940" y="370" as="targetPoint" />
          </mxGeometry>
        </mxCell>
        <mxCell id="VUYWSvdoOwhASW0aB_cJ-43" style="edgeStyle=orthogonalEdgeStyle;rounded=0;orthogonalLoop=1;jettySize=auto;html=1;exitX=0.5;exitY=1;exitDx=0;exitDy=0;entryX=0.5;entryY=1;entryDx=0;entryDy=0;curved=1;" parent="1" source="VUYWSvdoOwhASW0aB_cJ-39" target="VUYWSvdoOwhASW0aB_cJ-42" edge="1">
          <mxGeometry relative="1" as="geometry">
            <Array as="points">
              <mxPoint x="1010" y="490" />
              <mxPoint x="1510" y="490" />
            </Array>
          </mxGeometry>
        </mxCell>
        <mxCell id="VUYWSvdoOwhASW0aB_cJ-44" style="edgeStyle=orthogonalEdgeStyle;rounded=0;orthogonalLoop=1;jettySize=auto;html=1;exitX=1;exitY=0.5;exitDx=0;exitDy=0;entryX=0;entryY=0.5;entryDx=0;entryDy=0;curved=1;" parent="1" source="VUYWSvdoOwhASW0aB_cJ-39" target="VUYWSvdoOwhASW0aB_cJ-31" edge="1">
          <mxGeometry relative="1" as="geometry">
            <mxPoint x="1030.0000000000218" y="365" as="sourcePoint" />
            <Array as="points">
              <mxPoint x="1030" y="370" />
              <mxPoint x="1030" y="425" />
            </Array>
          </mxGeometry>
        </mxCell>
        <mxCell id="VUYWSvdoOwhASW0aB_cJ-48" style="edgeStyle=orthogonalEdgeStyle;rounded=0;orthogonalLoop=1;jettySize=auto;html=1;exitX=1;exitY=0.5;exitDx=0;exitDy=0;entryX=0;entryY=0.5;entryDx=0;entryDy=0;" parent="1" source="VUYWSvdoOwhASW0aB_cJ-39" target="VUYWSvdoOwhASW0aB_cJ-30" edge="1">
          <mxGeometry relative="1" as="geometry" />
        </mxCell>
        <mxCell id="VUYWSvdoOwhASW0aB_cJ-39" value="" style="ellipse;shape=doubleEllipse;whiteSpace=wrap;html=1;aspect=fixed;" parent="1" vertex="1">
          <mxGeometry x="1000" y="360" width="20" height="20" as="geometry" />
        </mxCell>
        <mxCell id="VUYWSvdoOwhASW0aB_cJ-40" value="" style="endArrow=classic;html=1;rounded=0;entryX=0;entryY=0.5;entryDx=0;entryDy=0;edgeStyle=orthogonalEdgeStyle;curved=1;exitX=1;exitY=0.5;exitDx=0;exitDy=0;" parent="1" source="VUYWSvdoOwhASW0aB_cJ-39" target="VUYWSvdoOwhASW0aB_cJ-29" edge="1">
          <mxGeometry width="50" height="50" relative="1" as="geometry">
            <mxPoint x="1030" y="364.72" as="sourcePoint" />
            <mxPoint x="1050" y="365" as="targetPoint" />
            <Array as="points">
              <mxPoint x="1030" y="370" />
              <mxPoint x="1030" y="315" />
            </Array>
          </mxGeometry>
        </mxCell>
        <mxCell id="VUYWSvdoOwhASW0aB_cJ-42" value="" style="ellipse;shape=doubleEllipse;whiteSpace=wrap;html=1;aspect=fixed;" parent="1" vertex="1">
          <mxGeometry x="1500" y="360" width="20" height="20" as="geometry" />
        </mxCell>
        <mxCell id="VUYWSvdoOwhASW0aB_cJ-53" style="edgeStyle=orthogonalEdgeStyle;rounded=0;orthogonalLoop=1;jettySize=auto;html=1;exitX=1;exitY=0.5;exitDx=0;exitDy=0;entryX=0;entryY=0.5;entryDx=0;entryDy=0;" parent="1" source="VUYWSvdoOwhASW0aB_cJ-52" target="VUYWSvdoOwhASW0aB_cJ-42" edge="1">
          <mxGeometry relative="1" as="geometry" />
        </mxCell>
        <mxCell id="VUYWSvdoOwhASW0aB_cJ-52" value="Заполнение данных вручную" style="shape=document;whiteSpace=wrap;html=1;boundedLbl=1;" parent="1" vertex="1">
          <mxGeometry x="1340" y="342.5" width="100" height="55" as="geometry" />
        </mxCell>
        <mxCell id="VUYWSvdoOwhASW0aB_cJ-54" value="" style="endArrow=classic;html=1;rounded=0;entryX=0;entryY=0.5;entryDx=0;entryDy=0;edgeStyle=orthogonalEdgeStyle;curved=1;" parent="1" target="VUYWSvdoOwhASW0aB_cJ-52" edge="1">
          <mxGeometry width="50" height="50" relative="1" as="geometry">
            <mxPoint x="1290" y="490" as="sourcePoint" />
            <mxPoint x="1280" y="380" as="targetPoint" />
          </mxGeometry>
        </mxCell>
        <mxCell id="VUYWSvdoOwhASW0aB_cJ-55" value="Ручной ввод данных" style="rounded=0;whiteSpace=wrap;html=1;fillColor=#f8cecc;strokeColor=#b85450;" parent="1" vertex="1">
          <mxGeometry x="1280" y="240" width="200" height="30" as="geometry" />
        </mxCell>
        <mxCell id="VUYWSvdoOwhASW0aB_cJ-56" value="Экспорт в различные форматы" style="shape=step;perimeter=stepPerimeter;whiteSpace=wrap;html=1;fixedSize=1;fontSize=16;fillColor=#dae8fc;strokeColor=#6c8ebf;" parent="1" vertex="1">
          <mxGeometry x="1560" y="160" width="520" height="60" as="geometry" />
        </mxCell>
        <mxCell id="VUYWSvdoOwhASW0aB_cJ-59" style="edgeStyle=orthogonalEdgeStyle;rounded=0;orthogonalLoop=1;jettySize=auto;html=1;exitX=0.5;exitY=1;exitDx=0;exitDy=0;entryX=0.5;entryY=1;entryDx=0;entryDy=0;curved=1;" parent="1" source="VUYWSvdoOwhASW0aB_cJ-57" target="VUYWSvdoOwhASW0aB_cJ-58" edge="1">
          <mxGeometry relative="1" as="geometry">
            <Array as="points">
              <mxPoint x="1570" y="430" />
              <mxPoint x="2068" y="430" />
            </Array>
          </mxGeometry>
        </mxCell>
        <mxCell id="VUYWSvdoOwhASW0aB_cJ-78" style="edgeStyle=orthogonalEdgeStyle;rounded=0;orthogonalLoop=1;jettySize=auto;html=1;exitX=1;exitY=0.5;exitDx=0;exitDy=0;entryX=0;entryY=0.5;entryDx=0;entryDy=0;" parent="1" source="VUYWSvdoOwhASW0aB_cJ-57" target="VUYWSvdoOwhASW0aB_cJ-61" edge="1">
          <mxGeometry relative="1" as="geometry" />
        </mxCell>
        <mxCell id="VUYWSvdoOwhASW0aB_cJ-57" value="" style="ellipse;shape=doubleEllipse;whiteSpace=wrap;html=1;aspect=fixed;" parent="1" vertex="1">
          <mxGeometry x="1560" y="360" width="20" height="20" as="geometry" />
        </mxCell>
        <mxCell id="VUYWSvdoOwhASW0aB_cJ-58" value="" style="ellipse;shape=doubleEllipse;whiteSpace=wrap;html=1;aspect=fixed;" parent="1" vertex="1">
          <mxGeometry x="2058" y="360" width="20" height="20" as="geometry" />
        </mxCell>
        <mxCell id="VUYWSvdoOwhASW0aB_cJ-64" style="edgeStyle=orthogonalEdgeStyle;rounded=0;orthogonalLoop=1;jettySize=auto;html=1;exitX=1;exitY=0.5;exitDx=0;exitDy=0;entryX=0;entryY=0.5;entryDx=0;entryDy=0;" parent="1" source="VUYWSvdoOwhASW0aB_cJ-61" target="VUYWSvdoOwhASW0aB_cJ-62" edge="1">
          <mxGeometry relative="1" as="geometry" />
        </mxCell>
        <mxCell id="VUYWSvdoOwhASW0aB_cJ-61" value="Выбор желаемых полей профиля" style="ellipse;whiteSpace=wrap;html=1;" parent="1" vertex="1">
          <mxGeometry x="1600" y="347.5" width="130" height="45" as="geometry" />
        </mxCell>
        <mxCell id="VUYWSvdoOwhASW0aB_cJ-65" style="edgeStyle=orthogonalEdgeStyle;rounded=0;orthogonalLoop=1;jettySize=auto;html=1;exitX=1;exitY=0.5;exitDx=0;exitDy=0;entryX=0;entryY=0.5;entryDx=0;entryDy=0;" parent="1" source="VUYWSvdoOwhASW0aB_cJ-62" target="VUYWSvdoOwhASW0aB_cJ-63" edge="1">
          <mxGeometry relative="1" as="geometry" />
        </mxCell>
        <mxCell id="VUYWSvdoOwhASW0aB_cJ-62" value="Выбор желаемого формата" style="ellipse;whiteSpace=wrap;html=1;" parent="1" vertex="1">
          <mxGeometry x="1760" y="347.5" width="130" height="45" as="geometry" />
        </mxCell>
        <mxCell id="VUYWSvdoOwhASW0aB_cJ-68" style="edgeStyle=orthogonalEdgeStyle;rounded=0;orthogonalLoop=1;jettySize=auto;html=1;exitX=1;exitY=0.5;exitDx=0;exitDy=0;entryX=0;entryY=0.5;entryDx=0;entryDy=0;" parent="1" source="VUYWSvdoOwhASW0aB_cJ-63" target="VUYWSvdoOwhASW0aB_cJ-58" edge="1">
          <mxGeometry relative="1" as="geometry" />
        </mxCell>
        <mxCell id="VUYWSvdoOwhASW0aB_cJ-63" value="Генерация файла" style="shape=document;whiteSpace=wrap;html=1;boundedLbl=1;" parent="1" vertex="1">
          <mxGeometry x="1920" y="342.5" width="120" height="55" as="geometry" />
        </mxCell>
        <mxCell id="VUYWSvdoOwhASW0aB_cJ-66" value="Настройки экспорта" style="rounded=0;whiteSpace=wrap;html=1;fillColor=#f8cecc;strokeColor=#b85450;" parent="1" vertex="1">
          <mxGeometry x="1600" y="240" width="280" height="30" as="geometry" />
        </mxCell>
        <mxCell id="VUYWSvdoOwhASW0aB_cJ-67" value="Экспорт" style="rounded=0;whiteSpace=wrap;html=1;fillColor=#f8cecc;strokeColor=#b85450;" parent="1" vertex="1">
          <mxGeometry x="1920" y="240" width="120" height="30" as="geometry" />
        </mxCell>
        <mxCell id="VUYWSvdoOwhASW0aB_cJ-69" style="edgeStyle=orthogonalEdgeStyle;rounded=0;orthogonalLoop=1;jettySize=auto;html=1;exitX=0.5;exitY=1;exitDx=0;exitDy=0;entryX=0.5;entryY=1;entryDx=0;entryDy=0;curved=1;" parent="1" source="VUYWSvdoOwhASW0aB_cJ-70" target="VUYWSvdoOwhASW0aB_cJ-71" edge="1">
          <mxGeometry relative="1" as="geometry">
            <Array as="points">
              <mxPoint x="2130" y="490" />
              <mxPoint x="2750" y="490" />
            </Array>
          </mxGeometry>
        </mxCell>
        <mxCell id="VUYWSvdoOwhASW0aB_cJ-81" style="edgeStyle=orthogonalEdgeStyle;rounded=0;orthogonalLoop=1;jettySize=auto;html=1;exitX=1;exitY=0.5;exitDx=0;exitDy=0;entryX=0;entryY=0.5;entryDx=0;entryDy=0;curved=1;" parent="1" source="VUYWSvdoOwhASW0aB_cJ-70" target="VUYWSvdoOwhASW0aB_cJ-73" edge="1">
          <mxGeometry relative="1" as="geometry" />
        </mxCell>
        <mxCell id="VUYWSvdoOwhASW0aB_cJ-82" style="edgeStyle=orthogonalEdgeStyle;rounded=0;orthogonalLoop=1;jettySize=auto;html=1;exitX=1;exitY=0.5;exitDx=0;exitDy=0;entryX=0;entryY=0.5;entryDx=0;entryDy=0;curved=1;" parent="1" source="VUYWSvdoOwhASW0aB_cJ-70" target="VUYWSvdoOwhASW0aB_cJ-75" edge="1">
          <mxGeometry relative="1" as="geometry" />
        </mxCell>
        <mxCell id="VUYWSvdoOwhASW0aB_cJ-70" value="" style="ellipse;shape=doubleEllipse;whiteSpace=wrap;html=1;aspect=fixed;" parent="1" vertex="1">
          <mxGeometry x="2120" y="360" width="20" height="20" as="geometry" />
        </mxCell>
        <mxCell id="VUYWSvdoOwhASW0aB_cJ-71" value="" style="ellipse;shape=doubleEllipse;whiteSpace=wrap;html=1;aspect=fixed;" parent="1" vertex="1">
          <mxGeometry x="2740" y="360" width="20" height="20" as="geometry" />
        </mxCell>
        <mxCell id="VUYWSvdoOwhASW0aB_cJ-83" style="edgeStyle=orthogonalEdgeStyle;rounded=0;orthogonalLoop=1;jettySize=auto;html=1;exitX=1;exitY=0.5;exitDx=0;exitDy=0;entryX=0;entryY=0.5;entryDx=0;entryDy=0;curved=1;" parent="1" source="VUYWSvdoOwhASW0aB_cJ-73" target="VUYWSvdoOwhASW0aB_cJ-77" edge="1">
          <mxGeometry relative="1" as="geometry" />
        </mxCell>
        <mxCell id="VUYWSvdoOwhASW0aB_cJ-73" value="Выбор формата существующей платформы" style="ellipse;whiteSpace=wrap;html=1;" parent="1" vertex="1">
          <mxGeometry x="2180" y="285" width="130" height="57.5" as="geometry" />
        </mxCell>
        <mxCell id="VUYWSvdoOwhASW0aB_cJ-74" style="edgeStyle=orthogonalEdgeStyle;rounded=0;orthogonalLoop=1;jettySize=auto;html=1;exitX=1;exitY=0.5;exitDx=0;exitDy=0;entryX=0;entryY=0.5;entryDx=0;entryDy=0;curved=1;" parent="1" source="VUYWSvdoOwhASW0aB_cJ-75" target="VUYWSvdoOwhASW0aB_cJ-77" edge="1">
          <mxGeometry relative="1" as="geometry" />
        </mxCell>
        <mxCell id="VUYWSvdoOwhASW0aB_cJ-75" value="Определение необходимых полей вручную" style="ellipse;whiteSpace=wrap;html=1;" parent="1" vertex="1">
          <mxGeometry x="2180" y="400" width="130" height="60" as="geometry" />
        </mxCell>
        <mxCell id="VUYWSvdoOwhASW0aB_cJ-77" value="Предпросмотр резюме" style="shape=document;whiteSpace=wrap;html=1;boundedLbl=1;" parent="1" vertex="1">
          <mxGeometry x="2370" y="342.5" width="90" height="55" as="geometry" />
        </mxCell>
        <mxCell id="VUYWSvdoOwhASW0aB_cJ-79" value="Выбор формата" style="rounded=0;whiteSpace=wrap;html=1;fillColor=#f8cecc;strokeColor=#b85450;" parent="1" vertex="1">
          <mxGeometry x="2160" y="240" width="180" height="30" as="geometry" />
        </mxCell>
        <mxCell id="VUYWSvdoOwhASW0aB_cJ-84" style="rounded=0;orthogonalLoop=1;jettySize=auto;html=1;exitX=1;exitY=0.5;exitDx=0;exitDy=0;entryX=0;entryY=0.5;entryDx=0;entryDy=0;" parent="1" target="VUYWSvdoOwhASW0aB_cJ-86" edge="1">
          <mxGeometry relative="1" as="geometry">
            <mxPoint x="2460" y="367.5" as="sourcePoint" />
          </mxGeometry>
        </mxCell>
        <mxCell id="VUYWSvdoOwhASW0aB_cJ-85" style="rounded=0;orthogonalLoop=1;jettySize=auto;html=1;exitX=1;exitY=0.5;exitDx=0;exitDy=0;entryX=0;entryY=0.5;entryDx=0;entryDy=0;" parent="1" target="VUYWSvdoOwhASW0aB_cJ-87" edge="1">
          <mxGeometry relative="1" as="geometry">
            <mxPoint x="2460" y="367.5" as="sourcePoint" />
          </mxGeometry>
        </mxCell>
        <mxCell id="VUYWSvdoOwhASW0aB_cJ-89" style="rounded=0;orthogonalLoop=1;jettySize=auto;html=1;exitX=1;exitY=0.5;exitDx=0;exitDy=0;entryX=0;entryY=0.5;entryDx=0;entryDy=0;" parent="1" source="VUYWSvdoOwhASW0aB_cJ-86" target="VUYWSvdoOwhASW0aB_cJ-71" edge="1">
          <mxGeometry relative="1" as="geometry" />
        </mxCell>
        <mxCell id="VUYWSvdoOwhASW0aB_cJ-86" value="Публикация на существующую платформу" style="ellipse;whiteSpace=wrap;html=1;" parent="1" vertex="1">
          <mxGeometry x="2570" y="277.5" width="130" height="57.5" as="geometry" />
        </mxCell>
        <mxCell id="VUYWSvdoOwhASW0aB_cJ-90" style="rounded=0;orthogonalLoop=1;jettySize=auto;html=1;exitX=1;exitY=0.5;exitDx=0;exitDy=0;" parent="1" source="VUYWSvdoOwhASW0aB_cJ-87" edge="1">
          <mxGeometry relative="1" as="geometry">
            <mxPoint x="2740" y="370" as="targetPoint" />
          </mxGeometry>
        </mxCell>
        <mxCell id="VUYWSvdoOwhASW0aB_cJ-87" value="Публикация на выбранный ресурс" style="ellipse;whiteSpace=wrap;html=1;" parent="1" vertex="1">
          <mxGeometry x="2569.33" y="397.5" width="130" height="60" as="geometry" />
        </mxCell>
        <mxCell id="VUYWSvdoOwhASW0aB_cJ-88" value="Только для форматов этой платформы" style="text;html=1;strokeColor=none;fillColor=none;align=center;verticalAlign=middle;whiteSpace=wrap;rounded=0;rotation=-30;fontColor=#FF0000;fontSize=10;" parent="1" vertex="1">
          <mxGeometry x="2460" y="300" width="109.33" height="30" as="geometry" />
        </mxCell>
        <mxCell id="VUYWSvdoOwhASW0aB_cJ-91" value="Предпросмотр" style="rounded=0;whiteSpace=wrap;html=1;fillColor=#f8cecc;strokeColor=#b85450;" parent="1" vertex="1">
          <mxGeometry x="2360" y="240" width="110" height="30" as="geometry" />
        </mxCell>
        <mxCell id="VUYWSvdoOwhASW0aB_cJ-92" value="Публикация" style="rounded=0;whiteSpace=wrap;html=1;fillColor=#f8cecc;strokeColor=#b85450;" parent="1" vertex="1">
          <mxGeometry x="2490" y="240" width="230" height="30" as="geometry" />
        </mxCell>
        <mxCell id="oHIoEjeaocd0SmxYD0uX-1" value="Легенда" style="text;html=1;align=center;verticalAlign=middle;whiteSpace=wrap;rounded=0;fontSize=18;" vertex="1" parent="1">
          <mxGeometry x="100" y="520" width="80" height="40" as="geometry" />
        </mxCell>
        <mxCell id="oHIoEjeaocd0SmxYD0uX-2" value="" style="shape=step;perimeter=stepPerimeter;whiteSpace=wrap;html=1;fixedSize=1;fontSize=16;fillColor=#dae8fc;strokeColor=#6c8ebf;" vertex="1" parent="1">
          <mxGeometry x="100" y="580" width="80" height="20" as="geometry" />
        </mxCell>
        <mxCell id="oHIoEjeaocd0SmxYD0uX-4" value="" style="rounded=0;whiteSpace=wrap;html=1;fillColor=#f8cecc;strokeColor=#b85450;" vertex="1" parent="1">
          <mxGeometry x="100" y="620" width="80" height="20" as="geometry" />
        </mxCell>
        <mxCell id="oHIoEjeaocd0SmxYD0uX-7" value="&lt;span style=&quot;color: rgb(0, 0, 0); font-family: Helvetica; font-size: 12px; font-style: normal; font-variant-ligatures: normal; font-variant-caps: normal; font-weight: 400; letter-spacing: normal; orphans: 2; text-align: center; text-indent: 0px; text-transform: none; widows: 2; word-spacing: 0px; -webkit-text-stroke-width: 0px; background-color: rgb(251, 251, 251); text-decoration-thickness: initial; text-decoration-style: initial; text-decoration-color: initial; float: none; display: inline !important;&quot;&gt;Получение данных с помощью интеграции&lt;/span&gt;" style="shape=document;whiteSpace=wrap;html=1;boundedLbl=1;" vertex="1" parent="1">
          <mxGeometry x="643.5" y="370" width="133" height="65" as="geometry" />
        </mxCell>
        <mxCell id="oHIoEjeaocd0SmxYD0uX-8" value="&lt;span style=&quot;color: rgb(0, 0, 0); font-family: Helvetica; font-size: 12px; font-style: normal; font-variant-ligatures: normal; font-variant-caps: normal; font-weight: 400; letter-spacing: normal; orphans: 2; text-align: center; text-indent: 0px; text-transform: none; widows: 2; word-spacing: 0px; -webkit-text-stroke-width: 0px; background-color: rgb(251, 251, 251); text-decoration-thickness: initial; text-decoration-style: initial; text-decoration-color: initial; float: none; display: inline !important;&quot;&gt;Ввод базовых данных вручную&lt;/span&gt;" style="shape=document;whiteSpace=wrap;html=1;boundedLbl=1;" vertex="1" parent="1">
          <mxGeometry x="643.5" y="295" width="133" height="65" as="geometry" />
        </mxCell>
        <mxCell id="oHIoEjeaocd0SmxYD0uX-9" value="" style="shape=document;whiteSpace=wrap;html=1;boundedLbl=1;" vertex="1" parent="1">
          <mxGeometry x="100" y="700" width="80" height="20" as="geometry" />
        </mxCell>
        <mxCell id="oHIoEjeaocd0SmxYD0uX-11" value="" style="shape=parallelogram;perimeter=parallelogramPerimeter;whiteSpace=wrap;html=1;fixedSize=1;" vertex="1" parent="1">
          <mxGeometry x="100" y="740" width="80" height="20" as="geometry" />
        </mxCell>
        <mxCell id="oHIoEjeaocd0SmxYD0uX-12" value="сервис API" style="text;html=1;strokeColor=none;fillColor=none;align=center;verticalAlign=middle;whiteSpace=wrap;rounded=0;" vertex="1" parent="1">
          <mxGeometry x="220" y="740" width="160" height="20" as="geometry" />
        </mxCell>
        <mxCell id="oHIoEjeaocd0SmxYD0uX-13" value="" style="ellipse;whiteSpace=wrap;html=1;" vertex="1" parent="1">
          <mxGeometry x="100" y="660" width="80" height="20" as="geometry" />
        </mxCell>
        <mxCell id="oHIoEjeaocd0SmxYD0uX-16" value="Подэтап использования приложения" style="text;html=1;strokeColor=none;fillColor=none;align=center;verticalAlign=middle;whiteSpace=wrap;rounded=0;" vertex="1" parent="1">
          <mxGeometry x="204" y="620" width="210" height="20" as="geometry" />
        </mxCell>
        <mxCell id="oHIoEjeaocd0SmxYD0uX-17" value="Этап использования приложения" style="text;html=1;strokeColor=none;fillColor=none;align=center;verticalAlign=middle;whiteSpace=wrap;rounded=0;" vertex="1" parent="1">
          <mxGeometry x="204" y="580" width="210" height="20" as="geometry" />
        </mxCell>
        <mxCell id="oHIoEjeaocd0SmxYD0uX-18" value="Выбор пользователем опции" style="text;html=1;strokeColor=none;fillColor=none;align=center;verticalAlign=middle;whiteSpace=wrap;rounded=0;" vertex="1" parent="1">
          <mxGeometry x="204" y="660" width="210" height="20" as="geometry" />
        </mxCell>
        <mxCell id="oHIoEjeaocd0SmxYD0uX-19" value="Получение данных для ввода /&lt;br&gt;Получение выходных данных" style="text;html=1;strokeColor=none;fillColor=none;align=center;verticalAlign=middle;whiteSpace=wrap;rounded=0;" vertex="1" parent="1">
          <mxGeometry x="204" y="695" width="210" height="30" as="geometry" />
        </mxCell>
      </root>
    </mxGraphModel>
  </diagram>
</mxfile>
